<svg xmlns="http://www.w3.org/2000/svg" xmlns:xlink="http://www.w3.org/1999/xlink" contentStyleType="text/css" height="1528px" preserveAspectRatio="none" style="width:2110px;height:1528px;" version="1.1" viewBox="0 0 2110 1528" width="2110px" zoomAndPan="magnify"><title>Music Shop Management System - Class Diagram</title><defs/><g><text fill="#000000" font-family="Verdana" font-size="22" font-weight="bold" lengthAdjust="spacing" textLength="612.0039" x="744.613" y="35.4209">Music Shop Management System - Class Diagram</text><!--cluster Model--><g id="cluster_Model"><rect fill="#FFFFFF" height="1247" rx="2.5" ry="2.5" style="stroke:#000000;stroke-width:1;" width="1328" x="92.23" y="275.6094"/><text fill="#000000" font-family="Verdana" font-size="14" font-weight="bold" lengthAdjust="spacing" textLength="47.8652" x="732.2974" y="290.6045">Model</text></g><!--cluster GUI--><g id="cluster_GUI"><rect fill="#FFFFFF" height="468" rx="2.5" ry="2.5" style="stroke:#000000;stroke-width:1;" width="376" x="1444.23" y="275.6094"/><text fill="#000000" font-family="Verdana" font-size="14" font-weight="bold" lengthAdjust="spacing" textLength="28.0684" x="1618.1958" y="290.6045">GUI</text></g><!--cluster Main--><g id="cluster_Main"><rect fill="#FFFFFF" height="160" rx="2.5" ry="2.5" style="stroke:#000000;stroke-width:1;" width="325" x="1779.23" y="58.6094"/><text fill="#000000" font-family="Verdana" font-size="14" font-weight="bold" lengthAdjust="spacing" textLength="38.1445" x="1922.6577" y="73.6045">Main</text></g><!--class Purchasable--><g id="elem_Purchasable"><rect codeLine="25" fill="#F8F9FA" height="76.5938" id="Purchasable" rx="2.5" ry="2.5" style="stroke:#2C3E50;stroke-width:1;" width="169.8896" x="593.23" y="1429.6094"/><ellipse cx="631.6831" cy="1443.6094" fill="#FFFFFF" rx="9" ry="9" style="stroke:#000000;stroke-width:1;"/><path d="M627.605,1439.375 L627.605,1437.2188 L634.9956,1437.2188 L634.9956,1439.375 L632.5269,1439.375 L632.5269,1447.4531 L634.9956,1447.4531 L634.9956,1449.6094 L627.605,1449.6094 L627.605,1447.4531 L630.0738,1447.4531 L630.0738,1439.375 L627.605,1439.375 Z " fill="#000000"/><text fill="#2C3E50" font-family="Verdana" font-size="14" font-style="italic" lengthAdjust="spacing" textLength="85.4834" x="649.1831" y="1448.4561">Purchasable</text><line style="stroke:#2C3E50;stroke-width:1;" x1="594.23" x2="762.1196" y1="1457.6094" y2="1457.6094"/><line style="stroke:#2C3E50;stroke-width:1;" x1="594.23" x2="762.1196" y1="1465.6094" y2="1465.6094"/><text fill="#2C3E50" font-family="Verdana" font-size="14" font-style="italic" lengthAdjust="spacing" textLength="157.8896" x="599.23" y="1482.6045">+purchaseItem(): void</text><text fill="#2C3E50" font-family="Verdana" font-size="14" font-style="italic" lengthAdjust="spacing" textLength="136.6777" x="599.23" y="1498.9014">+returnItem(): void</text></g><!--class Product--><g id="elem_Product"><rect codeLine="31" fill="#F8F9FA" height="223.2656" id="Product" rx="2.5" ry="2.5" style="stroke:#2C3E50;stroke-width:1;" width="448.8438" x="453.73" y="1145.6094"/><ellipse cx="647.5469" cy="1159.6094" fill="#FFFFFF" rx="9" ry="9" style="stroke:#000000;stroke-width:1;"/><path d="M647.6563,1154.9531 L646.5,1160.0313 L648.8281,1160.0313 L647.6563,1154.9531 Z M646.1719,1152.7188 L649.1563,1152.7188 L652.5156,1165.1094 L650.0625,1165.1094 L649.2969,1162.0469 L646.0156,1162.0469 L645.2656,1165.1094 L642.8281,1165.1094 L646.1719,1152.7188 Z " fill="#000000"/><text fill="#2C3E50" font-family="Verdana" font-size="14" font-style="italic" lengthAdjust="spacing" textLength="53.71" x="665.0469" y="1164.4561">Product</text><line style="stroke:#2C3E50;stroke-width:1;" x1="454.73" x2="901.5738" y1="1173.6094" y2="1173.6094"/><text fill="#2C3E50" font-family="Verdana" font-size="14" lengthAdjust="spacing" textLength="95.7031" x="459.73" y="1190.6045">-name: String</text><text fill="#2C3E50" font-family="Verdana" font-size="14" lengthAdjust="spacing" textLength="96.7764" x="459.73" y="1206.9014">-price: double</text><text fill="#2C3E50" font-family="Verdana" font-size="14" lengthAdjust="spacing" textLength="165.3545" x="459.73" y="1223.1982">-imageFileName: String</text><text fill="#2C3E50" font-family="Verdana" font-size="14" lengthAdjust="spacing" textLength="76.3027" x="459.73" y="1239.4951">#stock: int</text><line style="stroke:#2C3E50;stroke-width:1;" x1="454.73" x2="901.5738" y1="1246.7969" y2="1246.7969"/><text fill="#2C3E50" font-family="Verdana" font-size="14" lengthAdjust="spacing" textLength="436.8438" x="459.73" y="1263.792">+Product(name: String, price: double, imageFileName: String)</text><text fill="#2C3E50" font-family="Verdana" font-size="14" lengthAdjust="spacing" textLength="137.8945" x="459.73" y="1280.0889">+getName(): String</text><text fill="#2C3E50" font-family="Verdana" font-size="14" lengthAdjust="spacing" textLength="136.9238" x="459.73" y="1296.3857">+getPrice(): double</text><text fill="#2C3E50" font-family="Verdana" font-size="14" lengthAdjust="spacing" textLength="206.1855" x="459.73" y="1312.6826">+getImageFileName(): String</text><text fill="#2C3E50" font-family="Verdana" font-size="14" lengthAdjust="spacing" textLength="111.8086" x="459.73" y="1328.9795">+getStock(): int</text><text fill="#2C3E50" font-family="Verdana" font-size="14" lengthAdjust="spacing" textLength="235.3066" x="459.73" y="1345.2764">+updateStock(quantity: int): void</text><text fill="#2C3E50" font-family="Verdana" font-size="14" font-style="italic" lengthAdjust="spacing" textLength="145.127" x="459.73" y="1361.5732">+getDetails(): String</text></g><!--class Album--><g id="elem_Album"><rect codeLine="46" fill="#F8F9FA" height="141.7813" id="Album" rx="2.5" ry="2.5" style="stroke:#2C3E50;stroke-width:1;" width="468.6543" x="935.73" y="894.1094"/><ellipse cx="1143.875" cy="908.1094" fill="#FFFFFF" rx="9" ry="9" style="stroke:#000000;stroke-width:1;"/><path d="M1146.8438,913.75 Q1146.2656,914.0469 1145.625,914.1875 Q1144.9844,914.3438 1144.2813,914.3438 Q1141.7813,914.3438 1140.4531,912.7031 Q1139.1406,911.0469 1139.1406,907.9219 Q1139.1406,904.7969 1140.4531,903.1406 Q1141.7813,901.4844 1144.2813,901.4844 Q1144.9844,901.4844 1145.625,901.6406 Q1146.2813,901.7969 1146.8438,902.0938 L1146.8438,904.8125 Q1146.2188,904.2344 1145.625,903.9688 Q1145.0313,903.6875 1144.4063,903.6875 Q1143.0625,903.6875 1142.375,904.7656 Q1141.6875,905.8281 1141.6875,907.9219 Q1141.6875,910.0156 1142.375,911.0938 Q1143.0625,912.1563 1144.4063,912.1563 Q1145.0313,912.1563 1145.625,911.8906 Q1146.2188,911.6094 1146.8438,911.0313 L1146.8438,913.75 Z " fill="#000000"/><text fill="#2C3E50" font-family="Verdana" font-size="14" lengthAdjust="spacing" textLength="44.8643" x="1161.375" y="912.9561">Album</text><line style="stroke:#2C3E50;stroke-width:1;" x1="936.73" x2="1403.3843" y1="922.1094" y2="922.1094"/><text fill="#2C3E50" font-family="Verdana" font-size="14" lengthAdjust="spacing" textLength="92.4971" x="941.73" y="939.1045">-artist: String</text><text fill="#2C3E50" font-family="Verdana" font-size="14" lengthAdjust="spacing" textLength="97.665" x="941.73" y="955.4014">-genre: Genre</text><line style="stroke:#2C3E50;stroke-width:1;" x1="936.73" x2="1403.3843" y1="962.7031" y2="962.7031"/><text fill="#2C3E50" font-family="Verdana" font-size="14" lengthAdjust="spacing" textLength="456.6543" x="941.73" y="979.6982">+Album(name: String, price: double, artist: String, genre: Genre)</text><text fill="#2C3E50" font-family="Verdana" font-size="14" lengthAdjust="spacing" textLength="134.0869" x="941.73" y="995.9951">+getArtist(): String</text><text fill="#2C3E50" font-family="Verdana" font-size="14" lengthAdjust="spacing" textLength="140.2188" x="941.73" y="1012.292">+getGenre(): Genre</text><text fill="#2C3E50" font-family="Verdana" font-size="14" lengthAdjust="spacing" textLength="145.127" x="941.73" y="1028.5889">+getDetails(): String</text></g><!--class CD--><g id="elem_CD"><rect codeLine="55" fill="#F8F9FA" height="206.9688" id="CD" rx="2.5" ry="2.5" style="stroke:#2C3E50;stroke-width:1;" width="444.3457" x="456.23" y="861.6094"/><ellipse cx="664.375" cy="875.6094" fill="#FFFFFF" rx="9" ry="9" style="stroke:#000000;stroke-width:1;"/><path d="M667.3438,881.25 Q666.7656,881.5469 666.125,881.6875 Q665.4844,881.8438 664.7813,881.8438 Q662.2813,881.8438 660.9531,880.2031 Q659.6406,878.5469 659.6406,875.4219 Q659.6406,872.2969 660.9531,870.6406 Q662.2813,868.9844 664.7813,868.9844 Q665.4844,868.9844 666.125,869.1406 Q666.7813,869.2969 667.3438,869.5938 L667.3438,872.3125 Q666.7188,871.7344 666.125,871.4688 Q665.5313,871.1875 664.9063,871.1875 Q663.5625,871.1875 662.875,872.2656 Q662.1875,873.3281 662.1875,875.4219 Q662.1875,877.5156 662.875,878.5938 Q663.5625,879.6563 664.9063,879.6563 Q665.5313,879.6563 666.125,879.3906 Q666.7188,879.1094 667.3438,878.5313 L667.3438,881.25 Z " fill="#000000"/><text fill="#2C3E50" font-family="Verdana" font-size="14" lengthAdjust="spacing" textLength="20.5557" x="681.875" y="880.4561">CD</text><line style="stroke:#2C3E50;stroke-width:1;" x1="457.23" x2="899.5757" y1="889.6094" y2="889.6094"/><text fill="#2C3E50" font-family="Verdana" font-size="14" lengthAdjust="spacing" textLength="92.4971" x="462.23" y="906.6045">-artist: String</text><text fill="#2C3E50" font-family="Verdana" font-size="14" lengthAdjust="spacing" textLength="97.665" x="462.23" y="922.9014">-genre: Genre</text><text fill="#2C3E50" font-family="Verdana" font-size="14" lengthAdjust="spacing" textLength="149.0439" x="462.23" y="939.1982">-numberOfTracks: int</text><text fill="#2C3E50" font-family="Verdana" font-size="14" lengthAdjust="spacing" textLength="91.3828" x="462.23" y="955.4951">-duration: int</text><line style="stroke:#2C3E50;stroke-width:1;" x1="457.23" x2="899.5757" y1="962.7969" y2="962.7969"/><text fill="#2C3E50" font-family="Verdana" font-size="14" lengthAdjust="spacing" textLength="432.3457" x="462.23" y="979.792">+CD(name: String, price: double, artist: String, genre: Genre)</text><text fill="#2C3E50" font-family="Verdana" font-size="14" lengthAdjust="spacing" textLength="134.0869" x="462.23" y="996.0889">+getArtist(): String</text><text fill="#2C3E50" font-family="Verdana" font-size="14" lengthAdjust="spacing" textLength="140.2188" x="462.23" y="1012.3857">+getGenre(): Genre</text><text fill="#2C3E50" font-family="Verdana" font-size="14" lengthAdjust="spacing" textLength="191.2354" x="462.23" y="1028.6826">+getNumberOfTracks(): int</text><text fill="#2C3E50" font-family="Verdana" font-size="14" lengthAdjust="spacing" textLength="133.8682" x="462.23" y="1044.9795">+getDuration(): int</text><text fill="#2C3E50" font-family="Verdana" font-size="14" lengthAdjust="spacing" textLength="145.127" x="462.23" y="1061.2764">+getDetails(): String</text></g><!--class Customer--><g id="elem_Customer"><rect codeLine="68" fill="#F8F9FA" height="174.375" id="Customer" rx="2.5" ry="2.5" style="stroke:#2C3E50;stroke-width:1;" width="291.7676" x="192.23" y="610.6094"/><ellipse cx="300.3618" cy="624.6094" fill="#FFFFFF" rx="9" ry="9" style="stroke:#000000;stroke-width:1;"/><path d="M303.3306,630.25 Q302.7525,630.5469 302.1118,630.6875 Q301.4712,630.8438 300.7681,630.8438 Q298.2681,630.8438 296.94,629.2031 Q295.6275,627.5469 295.6275,624.4219 Q295.6275,621.2969 296.94,619.6406 Q298.2681,617.9844 300.7681,617.9844 Q301.4712,617.9844 302.1118,618.1406 Q302.7681,618.2969 303.3306,618.5938 L303.3306,621.3125 Q302.7056,620.7344 302.1118,620.4688 Q301.5181,620.1875 300.8931,620.1875 Q299.5493,620.1875 298.8618,621.2656 Q298.1743,622.3281 298.1743,624.4219 Q298.1743,626.5156 298.8618,627.5938 Q299.5493,628.6563 300.8931,628.6563 Q301.5181,628.6563 302.1118,628.3906 Q302.7056,628.1094 303.3306,627.5313 L303.3306,630.25 Z " fill="#000000"/><text fill="#2C3E50" font-family="Verdana" font-size="14" lengthAdjust="spacing" textLength="68.0039" x="317.8618" y="629.4561">Customer</text><line style="stroke:#2C3E50;stroke-width:1;" x1="193.23" x2="482.9976" y1="638.6094" y2="638.6094"/><text fill="#2C3E50" font-family="Verdana" font-size="14" lengthAdjust="spacing" textLength="95.7031" x="198.23" y="655.6045">-name: String</text><text fill="#2C3E50" font-family="Verdana" font-size="14" lengthAdjust="spacing" textLength="94.6094" x="198.23" y="671.9014">-email: String</text><text fill="#2C3E50" font-family="Verdana" font-size="14" lengthAdjust="spacing" textLength="206.5" x="198.23" y="688.1982">-purchaseHistory: List&lt;Sale&gt;</text><line style="stroke:#2C3E50;stroke-width:1;" x1="193.23" x2="482.9976" y1="695.5" y2="695.5"/><text fill="#2C3E50" font-family="Verdana" font-size="14" lengthAdjust="spacing" textLength="279.7676" x="198.23" y="712.4951">+Customer(name: String, email: String)</text><text fill="#2C3E50" font-family="Verdana" font-size="14" lengthAdjust="spacing" textLength="137.8945" x="198.23" y="728.792">+getName(): String</text><text fill="#2C3E50" font-family="Verdana" font-size="14" lengthAdjust="spacing" textLength="135.4336" x="198.23" y="745.0889">+getEmail(): String</text><text fill="#2C3E50" font-family="Verdana" font-size="14" lengthAdjust="spacing" textLength="219.4404" x="198.23" y="761.3857">+addPurchase(sale: Sale): void</text><text fill="#2C3E50" font-family="Verdana" font-size="14" lengthAdjust="spacing" textLength="246.6475" x="198.23" y="777.6826">+getPurchaseHistory(): List&lt;Sale&gt;</text></g><!--class Sale--><g id="elem_Sale"><rect codeLine="79" fill="#F8F9FA" height="223.2656" id="Sale" rx="2.5" ry="2.5" style="stroke:#2C3E50;stroke-width:1;" width="388.8789" x="108.73" y="310.6094"/><ellipse cx="284.4351" cy="324.6094" fill="#FFFFFF" rx="9" ry="9" style="stroke:#000000;stroke-width:1;"/><path d="M287.4038,330.25 Q286.8257,330.5469 286.1851,330.6875 Q285.5445,330.8438 284.8413,330.8438 Q282.3413,330.8438 281.0132,329.2031 Q279.7007,327.5469 279.7007,324.4219 Q279.7007,321.2969 281.0132,319.6406 Q282.3413,317.9844 284.8413,317.9844 Q285.5445,317.9844 286.1851,318.1406 Q286.8413,318.2969 287.4038,318.5938 L287.4038,321.3125 Q286.7788,320.7344 286.1851,320.4688 Q285.5913,320.1875 284.9663,320.1875 Q283.6226,320.1875 282.9351,321.2656 Q282.2476,322.3281 282.2476,324.4219 Q282.2476,326.5156 282.9351,327.5938 Q283.6226,328.6563 284.9663,328.6563 Q285.5913,328.6563 286.1851,328.3906 Q286.7788,328.1094 287.4038,327.5313 L287.4038,330.25 Z " fill="#000000"/><text fill="#2C3E50" font-family="Verdana" font-size="14" lengthAdjust="spacing" textLength="29.9688" x="301.9351" y="329.4561">Sale</text><line style="stroke:#2C3E50;stroke-width:1;" x1="109.73" x2="496.6089" y1="338.6094" y2="338.6094"/><text fill="#2C3E50" font-family="Verdana" font-size="14" lengthAdjust="spacing" textLength="62.3984" x="114.73" y="355.6045">-id: UUID</text><text fill="#2C3E50" font-family="Verdana" font-size="14" lengthAdjust="spacing" textLength="148.1484" x="114.73" y="371.9014">-customer: Customer</text><text fill="#2C3E50" font-family="Verdana" font-size="14" lengthAdjust="spacing" textLength="177.3105" x="114.73" y="388.1982">-products: List&lt;Product&gt;</text><text fill="#2C3E50" font-family="Verdana" font-size="14" lengthAdjust="spacing" textLength="148.9619" x="114.73" y="404.4951">-totalAmount: double</text><text fill="#2C3E50" font-family="Verdana" font-size="14" lengthAdjust="spacing" textLength="150.4727" x="114.73" y="420.792">-date: LocalDateTime</text><line style="stroke:#2C3E50;stroke-width:1;" x1="109.73" x2="496.6089" y1="428.0938" y2="428.0938"/><text fill="#2C3E50" font-family="Verdana" font-size="14" lengthAdjust="spacing" textLength="376.8789" x="114.73" y="445.0889">+Sale(customer: Customer, products: List&lt;Product&gt;)</text><text fill="#2C3E50" font-family="Verdana" font-size="14" lengthAdjust="spacing" textLength="103.2295" x="114.73" y="461.3857">+getId(): UUID</text><text fill="#2C3E50" font-family="Verdana" font-size="14" lengthAdjust="spacing" textLength="190.8184" x="114.73" y="477.6826">+getCustomer(): Customer</text><text fill="#2C3E50" font-family="Verdana" font-size="14" lengthAdjust="spacing" textLength="217.458" x="114.73" y="493.9795">+getProducts(): List&lt;Product&gt;</text><text fill="#2C3E50" font-family="Verdana" font-size="14" lengthAdjust="spacing" textLength="192.6162" x="114.73" y="510.2764">+getTotalAmount(): double</text><text fill="#2C3E50" font-family="Verdana" font-size="14" lengthAdjust="spacing" textLength="192.958" x="114.73" y="526.5732">+getDate(): LocalDateTime</text></g><!--class ShoppingCart--><g id="elem_ShoppingCart"><rect codeLine="93" fill="#F8F9FA" height="174.375" id="ShoppingCart" rx="2.5" ry="2.5" style="stroke:#2C3E50;stroke-width:1;" width="275.8193" x="145.23" y="878.1094"/><ellipse cx="231.7158" cy="892.1094" fill="#FFFFFF" rx="9" ry="9" style="stroke:#000000;stroke-width:1;"/><path d="M234.6846,897.75 Q234.1065,898.0469 233.4658,898.1875 Q232.8252,898.3438 232.1221,898.3438 Q229.6221,898.3438 228.294,896.7031 Q226.9815,895.0469 226.9815,891.9219 Q226.9815,888.7969 228.294,887.1406 Q229.6221,885.4844 232.1221,885.4844 Q232.8252,885.4844 233.4658,885.6406 Q234.1221,885.7969 234.6846,886.0938 L234.6846,888.8125 Q234.0596,888.2344 233.4658,887.9688 Q232.8721,887.6875 232.2471,887.6875 Q230.9033,887.6875 230.2158,888.7656 Q229.5283,889.8281 229.5283,891.9219 Q229.5283,894.0156 230.2158,895.0938 Q230.9033,896.1563 232.2471,896.1563 Q232.8721,896.1563 233.4658,895.8906 Q234.0596,895.6094 234.6846,895.0313 L234.6846,897.75 Z " fill="#000000"/><text fill="#2C3E50" font-family="Verdana" font-size="14" lengthAdjust="spacing" textLength="95.3477" x="249.2158" y="896.9561">ShoppingCart</text><line style="stroke:#2C3E50;stroke-width:1;" x1="146.23" x2="420.0493" y1="906.1094" y2="906.1094"/><text fill="#2C3E50" font-family="Verdana" font-size="14" lengthAdjust="spacing" textLength="154.7861" x="151.23" y="923.1045">-items: List&lt;Product&gt;</text><text fill="#2C3E50" font-family="Verdana" font-size="14" lengthAdjust="spacing" textLength="148.1484" x="151.23" y="939.4014">-customer: Customer</text><line style="stroke:#2C3E50;stroke-width:1;" x1="146.23" x2="420.0493" y1="946.7031" y2="946.7031"/><text fill="#2C3E50" font-family="Verdana" font-size="14" lengthAdjust="spacing" textLength="236.7012" x="151.23" y="963.6982">+addItem(product: Product): void</text><text fill="#2C3E50" font-family="Verdana" font-size="14" lengthAdjust="spacing" textLength="263.8193" x="151.23" y="979.9951">+removeItem(product: Product): void</text><text fill="#2C3E50" font-family="Verdana" font-size="14" lengthAdjust="spacing" textLength="195.6172" x="151.23" y="996.292">+getItems(): List&lt;Product&gt;</text><text fill="#2C3E50" font-family="Verdana" font-size="14" lengthAdjust="spacing" textLength="171.999" x="151.23" y="1012.5889">+getTotalPrice(): double</text><text fill="#2C3E50" font-family="Verdana" font-size="14" lengthAdjust="spacing" textLength="125.7061" x="151.23" y="1028.8857">+checkout(): Sale</text><text fill="#2C3E50" font-family="Verdana" font-size="14" lengthAdjust="spacing" textLength="95.9834" x="151.23" y="1045.1826">+clear(): void</text></g><!--class Genre--><g id="elem_Genre"><rect codeLine="105" fill="#F8F9FA" height="125.4844" id="Genre" rx="2.5" ry="2.5" style="stroke:#2C3E50;stroke-width:1;" width="88.207" x="1032.23" y="1194.6094"/><ellipse cx="1053.1063" cy="1208.6094" fill="#FFFFFF" rx="9" ry="9" style="stroke:#000000;stroke-width:1;"/><path d="M1057.2157,1214.6094 L1049.4969,1214.6094 L1049.4969,1202.2188 L1057.2157,1202.2188 L1057.2157,1204.375 L1051.9501,1204.375 L1051.9501,1207.0469 L1056.7157,1207.0469 L1056.7157,1209.2031 L1051.9501,1209.2031 L1051.9501,1212.4531 L1057.2157,1212.4531 L1057.2157,1214.6094 Z " fill="#000000"/><text fill="#2C3E50" font-family="Verdana" font-size="14" lengthAdjust="spacing" textLength="42.7041" x="1066.8566" y="1213.4561">Genre</text><line style="stroke:#2C3E50;stroke-width:1;" x1="1033.23" x2="1119.437" y1="1222.6094" y2="1222.6094"/><text fill="#2C3E50" font-family="Verdana" font-size="14" lengthAdjust="spacing" textLength="39.7031" x="1038.23" y="1239.6045">ROCK</text><text fill="#2C3E50" font-family="Verdana" font-size="14" lengthAdjust="spacing" textLength="27.9043" x="1038.23" y="1255.9014">POP</text><text fill="#2C3E50" font-family="Verdana" font-size="14" lengthAdjust="spacing" textLength="32.8877" x="1038.23" y="1272.1982">JAZZ</text><text fill="#2C3E50" font-family="Verdana" font-size="14" lengthAdjust="spacing" textLength="76.207" x="1038.23" y="1288.4951">CLASSICAL</text><text fill="#2C3E50" font-family="Verdana" font-size="14" lengthAdjust="spacing" textLength="60.0879" x="1038.23" y="1304.792">HIP_HOP</text><line style="stroke:#2C3E50;stroke-width:1;" x1="1033.23" x2="1119.437" y1="1312.0938" y2="1312.0938"/></g><!--class MusicShopGUI--><g id="elem_MusicShopGUI"><rect codeLine="115" fill="#F8F9FA" height="223.2656" id="MusicShopGUI" rx="2.5" ry="2.5" style="stroke:#2C3E50;stroke-width:1;" width="216.5244" x="1491.73" y="310.6094"/><ellipse cx="1546.1074" cy="324.6094" fill="#FFFFFF" rx="9" ry="9" style="stroke:#000000;stroke-width:1;"/><path d="M1549.0762,330.25 Q1548.4981,330.5469 1547.8574,330.6875 Q1547.2168,330.8438 1546.5137,330.8438 Q1544.0137,330.8438 1542.6856,329.2031 Q1541.3731,327.5469 1541.3731,324.4219 Q1541.3731,321.2969 1542.6856,319.6406 Q1544.0137,317.9844 1546.5137,317.9844 Q1547.2168,317.9844 1547.8574,318.1406 Q1548.5137,318.2969 1549.0762,318.5938 L1549.0762,321.3125 Q1548.4512,320.7344 1547.8574,320.4688 Q1547.2637,320.1875 1546.6387,320.1875 Q1545.2949,320.1875 1544.6074,321.2656 Q1543.9199,322.3281 1543.9199,324.4219 Q1543.9199,326.5156 1544.6074,327.5938 Q1545.2949,328.6563 1546.6387,328.6563 Q1547.2637,328.6563 1547.8574,328.3906 Q1548.4512,328.1094 1549.0762,327.5313 L1549.0762,330.25 Z " fill="#000000"/><text fill="#2C3E50" font-family="Verdana" font-size="14" lengthAdjust="spacing" textLength="100.2695" x="1563.6074" y="329.4561">MusicShopGUI</text><line style="stroke:#2C3E50;stroke-width:1;" x1="1492.73" x2="1707.2544" y1="338.6094" y2="338.6094"/><text fill="#2C3E50" font-family="Verdana" font-size="14" lengthAdjust="spacing" textLength="104.501" x="1497.73" y="355.6045">-frame: JFrame</text><text fill="#2C3E50" font-family="Verdana" font-size="14" lengthAdjust="spacing" textLength="198.6182" x="1497.73" y="371.9014">-productList: JList&lt;Product&gt;</text><text fill="#2C3E50" font-family="Verdana" font-size="14" lengthAdjust="spacing" textLength="171.9854" x="1497.73" y="388.1982">-cartList: JList&lt;Product&gt;</text><text fill="#2C3E50" font-family="Verdana" font-size="14" lengthAdjust="spacing" textLength="148.1484" x="1497.73" y="404.4951">-customer: Customer</text><text fill="#2C3E50" font-family="Verdana" font-size="14" lengthAdjust="spacing" textLength="137.0879" x="1497.73" y="420.792">-cart: ShoppingCart</text><line style="stroke:#2C3E50;stroke-width:1;" x1="1492.73" x2="1707.2544" y1="428.0938" y2="428.0938"/><text fill="#2C3E50" font-family="Verdana" font-size="14" lengthAdjust="spacing" textLength="119.7998" x="1497.73" y="445.0889">+initialize(): void</text><text fill="#2C3E50" font-family="Verdana" font-size="14" lengthAdjust="spacing" textLength="204.5244" x="1497.73" y="461.3857">-createProductPanel(): JPanel</text><text fill="#2C3E50" font-family="Verdana" font-size="14" lengthAdjust="spacing" textLength="180.4141" x="1497.73" y="477.6826">-createCartPanel(): JPanel</text><text fill="#2C3E50" font-family="Verdana" font-size="14" lengthAdjust="spacing" textLength="155.7021" x="1497.73" y="493.9795">-updateDisplay(): void</text><text fill="#2C3E50" font-family="Verdana" font-size="14" lengthAdjust="spacing" textLength="166.6123" x="1497.73" y="510.2764">-handlePurchase(): void</text><text fill="#2C3E50" font-family="Verdana" font-size="14" lengthAdjust="spacing" textLength="149.8164" x="1497.73" y="526.5732">-handleReturn(): void</text></g><!--class AlbumListCellRenderer--><g id="elem_AlbumListCellRenderer"><rect codeLine="129" fill="#F8F9FA" height="60.2969" id="AlbumListCellRenderer" rx="2.5" ry="2.5" style="stroke:#2C3E50;stroke-width:1;" width="344.8486" x="1459.73" y="667.6094"/><ellipse cx="1548.2324" cy="681.6094" fill="#FFFFFF" rx="9" ry="9" style="stroke:#000000;stroke-width:1;"/><path d="M1551.2012,687.25 Q1550.6231,687.5469 1549.9824,687.6875 Q1549.3418,687.8438 1548.6387,687.8438 Q1546.1387,687.8438 1544.8106,686.2031 Q1543.4981,684.5469 1543.4981,681.4219 Q1543.4981,678.2969 1544.8106,676.6406 Q1546.1387,674.9844 1548.6387,674.9844 Q1549.3418,674.9844 1549.9824,675.1406 Q1550.6387,675.2969 1551.2012,675.5938 L1551.2012,678.3125 Q1550.5762,677.7344 1549.9824,677.4688 Q1549.3887,677.1875 1548.7637,677.1875 Q1547.4199,677.1875 1546.7324,678.2656 Q1546.0449,679.3281 1546.0449,681.4219 Q1546.0449,683.5156 1546.7324,684.5938 Q1547.4199,685.6563 1548.7637,685.6563 Q1549.3887,685.6563 1549.9824,685.3906 Q1550.5762,685.1094 1551.2012,684.5313 L1551.2012,687.25 Z " fill="#000000"/><text fill="#2C3E50" font-family="Verdana" font-size="14" lengthAdjust="spacing" textLength="160.3438" x="1565.7324" y="686.4561">AlbumListCellRenderer</text><line style="stroke:#2C3E50;stroke-width:1;" x1="1460.73" x2="1803.5786" y1="695.6094" y2="695.6094"/><line style="stroke:#2C3E50;stroke-width:1;" x1="1460.73" x2="1803.5786" y1="703.6094" y2="703.6094"/><text fill="#2C3E50" font-family="Verdana" font-size="14" lengthAdjust="spacing" textLength="332.8486" x="1465.73" y="720.6045">+getListCellRendererComponent(): Component</text></g><!--class Main--><g id="elem_Main"><rect codeLine="135" fill="#F8F9FA" height="92.8906" id="Main" rx="2.5" ry="2.5" style="stroke:#2C3E50;stroke-width:1;" width="258.1416" x="1822.23" y="101.6094"/><ellipse cx="1930.8404" cy="115.6094" fill="#FFFFFF" rx="9" ry="9" style="stroke:#000000;stroke-width:1;"/><path d="M1933.8091,121.25 Q1933.231,121.5469 1932.5904,121.6875 Q1931.9497,121.8438 1931.2466,121.8438 Q1928.7466,121.8438 1927.4185,120.2031 Q1926.106,118.5469 1926.106,115.4219 Q1926.106,112.2969 1927.4185,110.6406 Q1928.7466,108.9844 1931.2466,108.9844 Q1931.9497,108.9844 1932.5904,109.1406 Q1933.2466,109.2969 1933.8091,109.5938 L1933.8091,112.3125 Q1933.1841,111.7344 1932.5904,111.4688 Q1931.9966,111.1875 1931.3716,111.1875 Q1930.0279,111.1875 1929.3404,112.2656 Q1928.6529,113.3281 1928.6529,115.4219 Q1928.6529,117.5156 1929.3404,118.5938 Q1930.0279,119.6563 1931.3716,119.6563 Q1931.9966,119.6563 1932.5904,119.3906 Q1933.1841,119.1094 1933.8091,118.5313 L1933.8091,121.25 Z " fill="#000000"/><text fill="#2C3E50" font-family="Verdana" font-size="14" lengthAdjust="spacing" textLength="33.4209" x="1948.3404" y="120.4561">Main</text><line style="stroke:#2C3E50;stroke-width:1;" x1="1823.23" x2="2079.3716" y1="129.6094" y2="129.6094"/><line style="stroke:#2C3E50;stroke-width:1;" x1="1823.23" x2="2079.3716" y1="137.6094" y2="137.6094"/><text fill="#2C3E50" font-family="Verdana" font-size="14" lengthAdjust="spacing" text-decoration="underline" textLength="188.8154" x="1828.23" y="154.6045">+main(args: String[]): void</text><text fill="#2C3E50" font-family="Verdana" font-size="14" lengthAdjust="spacing" text-decoration="underline" textLength="246.1416" x="1828.23" y="170.9014">-initializeProducts(): List&lt;Product&gt;</text><text fill="#2C3E50" font-family="Verdana" font-size="14" lengthAdjust="spacing" text-decoration="underline" textLength="119.1504" x="1828.23" y="187.1982">-setupGUI(): void</text></g><!--link Product to Purchasable--><g id="link_Product_Purchasable"><path codeLine="143" d="M678.23,1368.7294 C678.23,1390.6594 678.23,1394.2394 678.23,1411.5594 " fill="none" id="Product-to-Purchasable" style="stroke:#2C3E50;stroke-width:1;stroke-dasharray:7.0,7.0;"/><polygon fill="none" points="678.23,1429.5594,684.23,1411.5594,672.23,1411.5594,678.23,1429.5594" style="stroke:#2C3E50;stroke-width:1;"/></g><!--link Album to Product--><g id="link_Album_Product"><path codeLine="144" d="M1051.44,1036.1294 C995.85,1068.8894 943.8067,1099.5692 881.5267,1136.2792 " fill="none" id="Album-to-Product" style="stroke:#2C3E50;stroke-width:1;"/><polygon fill="none" points="866.02,1145.4194,884.5734,1141.4481,878.48,1131.1103,866.02,1145.4194" style="stroke:#2C3E50;stroke-width:1;"/></g><!--link CD to Product--><g id="link_CD_Product"><path codeLine="145" d="M678.23,1068.7594 C678.23,1093.5294 678.23,1102.0994 678.23,1127.2294 " fill="none" id="CD-to-Product" style="stroke:#2C3E50;stroke-width:1;"/><polygon fill="none" points="678.23,1145.2294,684.23,1127.2294,672.23,1127.2294,678.23,1145.2294" style="stroke:#2C3E50;stroke-width:1;"/></g><!--link Album to Genre--><g id="link_Album_Genre"><path codeLine="147" d="M1147.48,1036.3094 C1131.83,1084.5894 1113.0904,1142.3918 1098.0704,1188.7218 " fill="none" id="Album-to-Genre" style="stroke:#2C3E50;stroke-width:1;"/><polygon fill="#2C3E50" points="1096.22,1194.4294,1102.8006,1187.1016,1097.762,1189.6731,1095.1905,1184.6345,1096.22,1194.4294" style="stroke:#2C3E50;stroke-width:1;"/></g><!--link CD to Genre--><g id="link_CD_Genre"><path codeLine="148" d="M819.11,1068.7594 C894.02,1123.3494 976.1305,1183.1763 1027.3005,1220.4563 " fill="none" id="CD-to-Genre" style="stroke:#2C3E50;stroke-width:1;"/><polygon fill="#2C3E50" points="1032.15,1223.9894,1027.2312,1215.4568,1028.1088,1221.0451,1022.5204,1221.9227,1032.15,1223.9894" style="stroke:#2C3E50;stroke-width:1;"/></g><!--link Customer to ShoppingCart--><g id="link_Customer_ShoppingCart"><path codeLine="150" d="M320.37,784.8094 C314.19,814.6394 308.4872,842.1841 302.3072,872.0141 " fill="none" id="Customer-to-ShoppingCart" style="stroke:#2C3E50;stroke-width:1;"/><polygon fill="#2C3E50" points="301.09,877.8894,306.8326,869.888,302.1043,872.9933,298.999,868.2651,301.09,877.8894" style="stroke:#2C3E50;stroke-width:1;"/><text fill="#000000" font-family="Verdana" font-size="13" lengthAdjust="spacing" textLength="8.271" x="310.513" y="805.0041">1</text><text fill="#000000" font-family="Verdana" font-size="13" lengthAdjust="spacing" textLength="8.271" x="294.2565" y="867.1022">1</text></g><!--link Customer to Sale--><g id="link_Customer_Sale"><path codeLine="151" d="M361.52,610.2694 C363.16,594.7094 363.17,578.6594 360.23,563.6094 C358.31,553.7894 357.4696,549.5255 354.4296,539.6155 " fill="none" id="Customer-to-Sale" style="stroke:#2C3E50;stroke-width:1;"/><polygon fill="#2C3E50" points="352.67,533.8794,351.4853,543.6567,354.1364,538.6595,359.1336,541.3105,352.67,533.8794" style="stroke:#2C3E50;stroke-width:1;"/><text fill="#000000" font-family="Verdana" font-size="13" lengthAdjust="spacing" textLength="8.271" x="355.1383" y="599.4723">1</text><text fill="#000000" font-family="Verdana" font-size="13" lengthAdjust="spacing" textLength="6.5" x="349.8111" y="553.9553">*</text></g><!--link Sale to Customer--><g id="link_Sale_Customer"><path codeLine="153" d="M278.5,533.7194 C277.85,549.5394 278.79,565.5494 282.23,580.6094 C284.5,590.5294 285.5765,594.9892 289.3565,604.8192 " fill="none" id="Sale-to-Customer" style="stroke:#2C3E50;stroke-width:1;"/><polygon fill="#2C3E50" points="291.51,610.4194,292.0132,600.5834,289.7154,605.7525,284.5463,603.4547,291.51,610.4194" style="stroke:#2C3E50;stroke-width:1;"/><text fill="#000000" font-family="Verdana" font-size="13" lengthAdjust="spacing" textLength="68.2627" x="283.23" y="576.6763">belongs to</text><text fill="#000000" font-family="Verdana" font-size="13" lengthAdjust="spacing" textLength="6.5" x="270.6578" y="553.7845">*</text><text fill="#000000" font-family="Verdana" font-size="13" lengthAdjust="spacing" textLength="8.271" x="279.3306" y="599.6347">1</text></g><!--link ShoppingCart to Product--><g id="link_ShoppingCart_Product"><path codeLine="152" d="M400.41,1052.1394 C440.32,1081.4494 480.6834,1111.0788 522.8434,1142.0288 " fill="none" id="ShoppingCart-to-Product" style="stroke:#2C3E50;stroke-width:1;"/><polygon fill="#2C3E50" points="527.68,1145.5794,522.7921,1137.029,523.6495,1142.6205,518.058,1143.4779,527.68,1145.5794" style="stroke:#2C3E50;stroke-width:1;"/><text fill="#000000" font-family="Verdana" font-size="13" lengthAdjust="spacing" textLength="55.0278" x="482.23" y="1111.6763">contains</text><text fill="#000000" font-family="Verdana" font-size="13" lengthAdjust="spacing" textLength="8.271" x="402.5102" y="1072.6146">1</text><text fill="#000000" font-family="Verdana" font-size="13" lengthAdjust="spacing" textLength="6.5" x="511.3854" y="1134.6445">*</text></g><!--link Sale to Product--><g id="link_Sale_Product"><path codeLine="154" d="M221.05,533.8294 C130.18,670.9594 11,906.2894 127.23,1068.6094 C201.35,1172.1294 330.0841,1218.111 447.7141,1239.191 " fill="none" id="Sale-to-Product" style="stroke:#2C3E50;stroke-width:1;"/><polygon fill="#2C3E50" points="453.62,1240.2494,445.4667,1234.7245,448.6984,1239.3674,444.0555,1242.5991,453.62,1240.2494" style="stroke:#2C3E50;stroke-width:1;"/><text fill="#000000" font-family="Verdana" font-size="13" lengthAdjust="spacing" textLength="53.8726" x="92.23" y="827.6763">includes</text><text fill="#000000" font-family="Verdana" font-size="13" lengthAdjust="spacing" textLength="6.5" x="209.3478" y="553.9019">*</text><text fill="#000000" font-family="Verdana" font-size="13" lengthAdjust="spacing" textLength="6.5" x="439.4521" y="1236.4384">*</text></g><!--link MusicShopGUI to Customer--><g id="link_MusicShopGUI_Customer"><path codeLine="156" d="M1491.55,501.4794 C1468.93,514.3794 1444.55,525.9994 1420.23,533.6094 C1306.59,569.1694 1003.02,546.1394 885.23,563.6094 C747.59,584.0294 599.6399,621.2593 490.2899,651.7193 " fill="none" id="MusicShopGUI-to-Customer" style="stroke:#2C3E50;stroke-width:1;"/><polygon fill="#2C3E50" points="484.51,653.3294,494.2533,654.7676,489.3266,651.9877,492.1066,647.061,484.51,653.3294" style="stroke:#2C3E50;stroke-width:1;"/><text fill="#000000" font-family="Verdana" font-size="13" lengthAdjust="spacing" textLength="52.9331" x="886.23" y="576.6763">displays</text></g><!--link MusicShopGUI to ShoppingCart--><g id="link_MusicShopGUI_ShoppingCart"><path codeLine="157" d="M1491.53,495.2894 C1468.52,509.0094 1443.99,522.5194 1420.23,533.6094 C1003.63,728.0194 852.79,660.8194 439.23,861.6094 C429.03,866.5594 423.9129,869.1086 413.6829,874.9386 " fill="none" id="MusicShopGUI-to-ShoppingCart" style="stroke:#2C3E50;stroke-width:1;"/><polygon fill="#2C3E50" points="408.47,877.9094,418.2699,876.9285,412.8141,875.4337,414.3088,869.9779,408.47,877.9094" style="stroke:#2C3E50;stroke-width:1;"/><text fill="#000000" font-family="Verdana" font-size="13" lengthAdjust="spacing" textLength="59.8584" x="1232.23" y="702.1763">manages</text></g><!--link MusicShopGUI to AlbumListCellRenderer--><g id="link_MusicShopGUI_AlbumListCellRenderer"><path codeLine="158" d="M1613.2,533.9594 C1618.88,582.5294 1624.393,629.66 1628.123,661.55 " fill="none" id="MusicShopGUI-to-AlbumListCellRenderer" style="stroke:#2C3E50;stroke-width:1;"/><polygon fill="#2C3E50" points="1628.82,667.5094,1631.7474,658.1056,1628.2391,662.5432,1623.8015,659.035,1628.82,667.5094" style="stroke:#2C3E50;stroke-width:1;"/><text fill="#000000" font-family="Verdana" font-size="13" lengthAdjust="spacing" textLength="29.7832" x="1618.23" y="576.6763">uses</text></g><!--link Main to MusicShopGUI--><g id="link_Main_MusicShopGUI"><path codeLine="160" d="M1778.9644,161.1373 C1778.8747,161.2677 1778.7843,161.3992 1778.6933,161.5315 C1777.9652,162.5906 1777.1955,163.7101 1776.3861,164.8873 C1769.9109,174.3053 1760.8969,187.4163 1750.3388,202.7731 C1729.2225,233.4869 1705.3292,268.2401 1679.8192,305.3451 " fill="none" id="Main-to-MusicShopGUI" style="stroke:#2C3E50;stroke-width:1;"/><polygon fill="#2C3E50" points="1676.42,310.2894,1684.815,305.1392,1679.2527,306.1692,1678.2226,300.6069,1676.42,310.2894" style="stroke:#2C3E50;stroke-width:1;"/><text fill="#000000" font-family="Verdana" font-size="13" lengthAdjust="spacing" textLength="48.3247" x="1722.23" y="255.6763">creates</text></g><!--link Main to Product--><g id="link_Main_Product"><path codeLine="161" d="M1801.6485,218.9786 C1801.8079,219.5697 1801.9686,220.1601 1802.1303,220.7496 C1803.4245,225.4653 1804.7925,230.1206 1806.23,234.6094 C1811.09,249.7794 1814.47,252.7494 1820.23,267.6094 C1846.37,335.0394 1874.23,348.7894 1874.23,421.1094 C1874.23,421.1094 1874.23,421.1094 1874.23,966.1094 C1874.23,1161.1194 1204.09,1096.9994 1015.23,1145.6094 C978.71,1155.0094 946.0961,1164.4472 908.9061,1176.0872 " fill="none" id="Main-to-Product" style="stroke:#2C3E50;stroke-width:1;"/><polygon fill="#2C3E50" points="903.18,1177.8794,912.9639,1179.0085,907.9517,1176.3859,910.5743,1171.3737,903.18,1177.8794" style="stroke:#2C3E50;stroke-width:1;"/><text fill="#000000" font-family="Verdana" font-size="13" lengthAdjust="spacing" textLength="60.9565" x="1875.23" y="702.1763">initializes</text></g><!--SRC=[pLVTRzis47_NNy6b3qcsfEWw5EY48O0dnuspf37YvAN3CD3InIOYaHf9jSYw_EyzVaWc9Jd9i9VvmH9vFzutxqxxPAaVIY2K5qHle0AYG6l6rohvpgthaZAUg7l6QoffHLOqlrzBqV0Y4wMGH4lA5PA0wm2LbrIfYTQIhHeDyrpm9ViRo9i0OddaGdAGv5smhpQq45zG1N97ImL9dolvcX3y_ThJuzNi_UpdsSJHX2n0-lstsK-dxzxO_OcKuijmUoQu7W6tse-Jbnea2FrGZz0VGwLhL9IkmVbPGgufNvTerZwvOHfVjFadburYELbkH4qkAKTyXGubomUbeIB79BEMJnbT8qjpTk6ugiIp9vUYWDBxPf_CEQftHtC4c0tMBicYaVc6Ahf2cGviVZ-GhtIbC9IvVYIrWy0SHHySfkIpOCKuKe9k91_Wq7odnSGZdVfUb_QuZ-P2YgB1rLQPOy9f1IbwM68M1DkrP3dk5w91xODzLg43Pgo4ZsFdNX6bHNwV6YS4PdYv1w6ierZ4qJZdmu3B6hGX6VDxOYrjOTWPOazdIvo7p7TnM1hT3J7MlgaBgi4H_seenoHwi9WduuNyfg0fArLFN1UnJF0SemfHn5oW9kMggQ8mKQcPqYE1MWENwAuFvX5eOZayxV2OvL74gUVtYONkyfizOOXz9PxpWJCsc_u7Ip61cse5ykhk1lr-h-BW7PEYaLGpmVj1pQR_0-TyZ5GVPfxndzT_dFW2vpPu8oii-o-uyr0Xjx5Qu8lK6Pef9ER-1RxyigGbd8GUzP9wVesO_elhV6hEZH9fKVZA2WSAbK08_Wylewa9iUQ6NK_to5bcEt8KAr9oUpkV1bkvDpFj38wgfYrqoelnTUyaG6YXQJcfi9VgaUfg2WsU5Jajf_XwmwemOunw1qFvHxl4zhmzBupzaJbslmlSuOXDlhGw_ft_1ePPsCtMjbrrs5XbkGnCZ0E1lRd6g6Tu3UE0OFzxmhjF1CVcZMsVtbjfsvQ6cIEX4f_XXM3ZMQFLIvopkqVb6yZlHUFA28r99L0vtlHFiVYvlW7uvafCuA_hg-otRh6uMdJlvvDFdxf5TZ5PBkVPvABREPil_Zppy4SpORM3puVRkMVlucGdAHEiBS45uaxQ8d0-Cy_X1RcmjVLyPnWnxCz1dhg6vdmQ9L7WJiQPPhJ44NamSE592PYKNjw2Sh0bwDo-3M26yMwC6nkcJE5K_p0YQeFV0ILqbMmNuDhEVMFX3qO5uwKCol8QE0xZKRMtoTUdPwAg1GTtJxl5CDwN-3qI1toxuISUfR4_vOy4opK_e7Ajsehz-nz3aphqDWZFrvRW67umDIRNUkvuD5FwDPIsKweDgrNIZhglN_zp4WxYYHkjZe_DjiCaE814wmvpufks1RIBf6kfUp_ksNtpZ99jYFX-pztggB25r5RVbE3t6tPrhXBRZGojbT6nJSaAIe4VZjXEUh285UDvsHGuMIRHHJN0W5VXKbGDGP6sAOQOsy-W0Muy1rFIA2lRv8o1HUTIVudKbXugtgQ7-WO0]--></g></svg>