<svg xmlns="http://www.w3.org/2000/svg" xmlns:xlink="http://www.w3.org/1999/xlink" contentStyleType="text/css" height="1888px" preserveAspectRatio="none" style="width:1387px;height:1888px;" version="1.1" viewBox="0 0 1387 1888" width="1387px" zoomAndPan="magnify"><title>Music Shop Management System - Class Diagram</title><defs/><g><text fill="#000000" font-family="Verdana" font-size="22" font-weight="bold" lengthAdjust="spacing" textLength="612.0039" x="382.998" y="35.4209">Music Shop Management System - Class Diagram</text><!--cluster Model--><g id="cluster_Model"><rect fill="#FFFFFF" height="1374" rx="2.5" ry="2.5" style="stroke:#000000;stroke-width:1;" width="1185" x="196" y="291.6094"/><text fill="#000000" font-family="Verdana" font-size="14" font-weight="bold" lengthAdjust="spacing" textLength="47.8652" x="764.5674" y="306.6045">Model</text></g><!--cluster GUI--><g id="cluster_GUI"><rect fill="#FFFFFF" height="209" rx="2.5" ry="2.5" style="stroke:#000000;stroke-width:1;" width="874" x="12" y="58.6094"/><text fill="#000000" font-family="Verdana" font-size="14" font-weight="bold" lengthAdjust="spacing" textLength="28.0684" x="434.9658" y="73.6045">GUI</text></g><!--cluster Enums--><g id="cluster_Enums"><rect fill="#FFFFFF" height="193" rx="2.5" ry="2.5" style="stroke:#000000;stroke-width:1;" width="315" x="391" y="1689.6094"/><text fill="#000000" font-family="Verdana" font-size="14" font-weight="bold" lengthAdjust="spacing" textLength="52.418" x="522.291" y="1704.6045">Enums</text></g><!--class Purchasable--><g id="elem_Purchasable"><rect codeLine="25" fill="#F8F9FA" height="76.5938" id="Purchasable" rx="2.5" ry="2.5" style="stroke:#2C3E50;stroke-width:1;" width="169.8896" x="212" y="1507.6094"/><ellipse cx="250.4531" cy="1521.6094" fill="#FFFFFF" rx="9" ry="9" style="stroke:#000000;stroke-width:1;"/><path d="M246.375,1517.375 L246.375,1515.2188 L253.7656,1515.2188 L253.7656,1517.375 L251.2969,1517.375 L251.2969,1525.4531 L253.7656,1525.4531 L253.7656,1527.6094 L246.375,1527.6094 L246.375,1525.4531 L248.8438,1525.4531 L248.8438,1517.375 L246.375,1517.375 Z " fill="#000000"/><text fill="#2C3E50" font-family="Verdana" font-size="14" font-style="italic" lengthAdjust="spacing" textLength="85.4834" x="267.9531" y="1526.4561">Purchasable</text><line style="stroke:#2C3E50;stroke-width:1;" x1="213" x2="380.8896" y1="1535.6094" y2="1535.6094"/><line style="stroke:#2C3E50;stroke-width:1;" x1="213" x2="380.8896" y1="1543.6094" y2="1543.6094"/><text fill="#2C3E50" font-family="Verdana" font-size="14" font-style="italic" lengthAdjust="spacing" textLength="157.8896" x="218" y="1560.6045">+purchaseItem(): void</text><text fill="#2C3E50" font-family="Verdana" font-size="14" font-style="italic" lengthAdjust="spacing" textLength="136.6777" x="218" y="1576.9014">+returnItem(): void</text></g><!--class Product--><g id="elem_Product"><rect codeLine="31" fill="#F8F9FA" height="223.2656" id="Product" rx="2.5" ry="2.5" style="stroke:#2C3E50;stroke-width:1;" width="448.8438" x="577.5" y="1159.6094"/><ellipse cx="771.3169" cy="1173.6094" fill="#FFFFFF" rx="9" ry="9" style="stroke:#000000;stroke-width:1;"/><path d="M771.4263,1168.9531 L770.27,1174.0313 L772.5981,1174.0313 L771.4263,1168.9531 Z M769.9419,1166.7188 L772.9263,1166.7188 L776.2856,1179.1094 L773.8325,1179.1094 L773.0669,1176.0469 L769.7856,1176.0469 L769.0356,1179.1094 L766.5981,1179.1094 L769.9419,1166.7188 Z " fill="#000000"/><text fill="#2C3E50" font-family="Verdana" font-size="14" font-style="italic" lengthAdjust="spacing" textLength="53.71" x="788.8169" y="1178.4561">Product</text><line style="stroke:#2C3E50;stroke-width:1;" x1="578.5" x2="1025.3438" y1="1187.6094" y2="1187.6094"/><text fill="#2C3E50" font-family="Verdana" font-size="14" lengthAdjust="spacing" textLength="95.7031" x="583.5" y="1204.6045">-name: String</text><text fill="#2C3E50" font-family="Verdana" font-size="14" lengthAdjust="spacing" textLength="96.7764" x="583.5" y="1220.9014">-price: double</text><text fill="#2C3E50" font-family="Verdana" font-size="14" lengthAdjust="spacing" textLength="165.3545" x="583.5" y="1237.1982">-imageFileName: String</text><text fill="#2C3E50" font-family="Verdana" font-size="14" lengthAdjust="spacing" textLength="76.3027" x="583.5" y="1253.4951">#stock: int</text><line style="stroke:#2C3E50;stroke-width:1;" x1="578.5" x2="1025.3438" y1="1260.7969" y2="1260.7969"/><text fill="#2C3E50" font-family="Verdana" font-size="14" lengthAdjust="spacing" textLength="436.8438" x="583.5" y="1277.792">+Product(name: String, price: double, imageFileName: String)</text><text fill="#2C3E50" font-family="Verdana" font-size="14" lengthAdjust="spacing" textLength="137.8945" x="583.5" y="1294.0889">+getName(): String</text><text fill="#2C3E50" font-family="Verdana" font-size="14" lengthAdjust="spacing" textLength="136.9238" x="583.5" y="1310.3857">+getPrice(): double</text><text fill="#2C3E50" font-family="Verdana" font-size="14" lengthAdjust="spacing" textLength="206.1855" x="583.5" y="1326.6826">+getImageFileName(): String</text><text fill="#2C3E50" font-family="Verdana" font-size="14" lengthAdjust="spacing" textLength="111.8086" x="583.5" y="1342.9795">+getStock(): int</text><text fill="#2C3E50" font-family="Verdana" font-size="14" lengthAdjust="spacing" textLength="235.3066" x="583.5" y="1359.2764">+updateStock(quantity: int): void</text><text fill="#2C3E50" font-family="Verdana" font-size="14" font-style="italic" lengthAdjust="spacing" textLength="145.127" x="583.5" y="1375.5732">+getDetails(): String</text></g><!--class Album--><g id="elem_Album"><rect codeLine="46" fill="#F8F9FA" height="141.7813" id="Album" rx="2.5" ry="2.5" style="stroke:#2C3E50;stroke-width:1;" width="468.6543" x="896.5" y="1475.1094"/><ellipse cx="1104.645" cy="1489.1094" fill="#FFFFFF" rx="9" ry="9" style="stroke:#000000;stroke-width:1;"/><path d="M1107.6138,1494.75 Q1107.0356,1495.0469 1106.395,1495.1875 Q1105.7544,1495.3438 1105.0513,1495.3438 Q1102.5513,1495.3438 1101.2231,1493.7031 Q1099.9106,1492.0469 1099.9106,1488.9219 Q1099.9106,1485.7969 1101.2231,1484.1406 Q1102.5513,1482.4844 1105.0513,1482.4844 Q1105.7544,1482.4844 1106.395,1482.6406 Q1107.0513,1482.7969 1107.6138,1483.0938 L1107.6138,1485.8125 Q1106.9888,1485.2344 1106.395,1484.9688 Q1105.8013,1484.6875 1105.1763,1484.6875 Q1103.8325,1484.6875 1103.145,1485.7656 Q1102.4575,1486.8281 1102.4575,1488.9219 Q1102.4575,1491.0156 1103.145,1492.0938 Q1103.8325,1493.1563 1105.1763,1493.1563 Q1105.8013,1493.1563 1106.395,1492.8906 Q1106.9888,1492.6094 1107.6138,1492.0313 L1107.6138,1494.75 Z " fill="#000000"/><text fill="#2C3E50" font-family="Verdana" font-size="14" lengthAdjust="spacing" textLength="44.8643" x="1122.145" y="1493.9561">Album</text><line style="stroke:#2C3E50;stroke-width:1;" x1="897.5" x2="1364.1543" y1="1503.1094" y2="1503.1094"/><text fill="#2C3E50" font-family="Verdana" font-size="14" lengthAdjust="spacing" textLength="92.4971" x="902.5" y="1520.1045">-artist: String</text><text fill="#2C3E50" font-family="Verdana" font-size="14" lengthAdjust="spacing" textLength="97.665" x="902.5" y="1536.4014">-genre: Genre</text><line style="stroke:#2C3E50;stroke-width:1;" x1="897.5" x2="1364.1543" y1="1543.7031" y2="1543.7031"/><text fill="#2C3E50" font-family="Verdana" font-size="14" lengthAdjust="spacing" textLength="456.6543" x="902.5" y="1560.6982">+Album(name: String, price: double, artist: String, genre: Genre)</text><text fill="#2C3E50" font-family="Verdana" font-size="14" lengthAdjust="spacing" textLength="134.0869" x="902.5" y="1576.9951">+getArtist(): String</text><text fill="#2C3E50" font-family="Verdana" font-size="14" lengthAdjust="spacing" textLength="140.2188" x="902.5" y="1593.292">+getGenre(): Genre</text><text fill="#2C3E50" font-family="Verdana" font-size="14" lengthAdjust="spacing" textLength="145.127" x="902.5" y="1609.5889">+getDetails(): String</text></g><!--class CD--><g id="elem_CD"><rect codeLine="55" fill="#F8F9FA" height="206.9688" id="CD" rx="2.5" ry="2.5" style="stroke:#2C3E50;stroke-width:1;" width="444.3457" x="417" y="1442.6094"/><ellipse cx="625.145" cy="1456.6094" fill="#FFFFFF" rx="9" ry="9" style="stroke:#000000;stroke-width:1;"/><path d="M628.1138,1462.25 Q627.5356,1462.5469 626.895,1462.6875 Q626.2544,1462.8438 625.5513,1462.8438 Q623.0513,1462.8438 621.7231,1461.2031 Q620.4106,1459.5469 620.4106,1456.4219 Q620.4106,1453.2969 621.7231,1451.6406 Q623.0513,1449.9844 625.5513,1449.9844 Q626.2544,1449.9844 626.895,1450.1406 Q627.5513,1450.2969 628.1138,1450.5938 L628.1138,1453.3125 Q627.4888,1452.7344 626.895,1452.4688 Q626.3013,1452.1875 625.6763,1452.1875 Q624.3325,1452.1875 623.645,1453.2656 Q622.9575,1454.3281 622.9575,1456.4219 Q622.9575,1458.5156 623.645,1459.5938 Q624.3325,1460.6563 625.6763,1460.6563 Q626.3013,1460.6563 626.895,1460.3906 Q627.4888,1460.1094 628.1138,1459.5313 L628.1138,1462.25 Z " fill="#000000"/><text fill="#2C3E50" font-family="Verdana" font-size="14" lengthAdjust="spacing" textLength="20.5557" x="642.645" y="1461.4561">CD</text><line style="stroke:#2C3E50;stroke-width:1;" x1="418" x2="860.3457" y1="1470.6094" y2="1470.6094"/><text fill="#2C3E50" font-family="Verdana" font-size="14" lengthAdjust="spacing" textLength="92.4971" x="423" y="1487.6045">-artist: String</text><text fill="#2C3E50" font-family="Verdana" font-size="14" lengthAdjust="spacing" textLength="97.665" x="423" y="1503.9014">-genre: Genre</text><text fill="#2C3E50" font-family="Verdana" font-size="14" lengthAdjust="spacing" textLength="149.0439" x="423" y="1520.1982">-numberOfTracks: int</text><text fill="#2C3E50" font-family="Verdana" font-size="14" lengthAdjust="spacing" textLength="91.3828" x="423" y="1536.4951">-duration: int</text><line style="stroke:#2C3E50;stroke-width:1;" x1="418" x2="860.3457" y1="1543.7969" y2="1543.7969"/><text fill="#2C3E50" font-family="Verdana" font-size="14" lengthAdjust="spacing" textLength="432.3457" x="423" y="1560.792">+CD(name: String, price: double, artist: String, genre: Genre)</text><text fill="#2C3E50" font-family="Verdana" font-size="14" lengthAdjust="spacing" textLength="134.0869" x="423" y="1577.0889">+getArtist(): String</text><text fill="#2C3E50" font-family="Verdana" font-size="14" lengthAdjust="spacing" textLength="140.2188" x="423" y="1593.3857">+getGenre(): Genre</text><text fill="#2C3E50" font-family="Verdana" font-size="14" lengthAdjust="spacing" textLength="191.2354" x="423" y="1609.6826">+getNumberOfTracks(): int</text><text fill="#2C3E50" font-family="Verdana" font-size="14" lengthAdjust="spacing" textLength="133.8682" x="423" y="1625.9795">+getDuration(): int</text><text fill="#2C3E50" font-family="Verdana" font-size="14" lengthAdjust="spacing" textLength="145.127" x="423" y="1642.2764">+getDetails(): String</text></g><!--class Customer--><g id="elem_Customer"><rect codeLine="68" fill="#F8F9FA" height="174.375" id="Customer" rx="2.5" ry="2.5" style="stroke:#2C3E50;stroke-width:1;" width="291.7676" x="590" y="601.6094"/><ellipse cx="698.1318" cy="615.6094" fill="#FFFFFF" rx="9" ry="9" style="stroke:#000000;stroke-width:1;"/><path d="M701.1006,621.25 Q700.5225,621.5469 699.8818,621.6875 Q699.2412,621.8438 698.5381,621.8438 Q696.0381,621.8438 694.71,620.2031 Q693.3975,618.5469 693.3975,615.4219 Q693.3975,612.2969 694.71,610.6406 Q696.0381,608.9844 698.5381,608.9844 Q699.2412,608.9844 699.8818,609.1406 Q700.5381,609.2969 701.1006,609.5938 L701.1006,612.3125 Q700.4756,611.7344 699.8818,611.4688 Q699.2881,611.1875 698.6631,611.1875 Q697.3193,611.1875 696.6318,612.2656 Q695.9443,613.3281 695.9443,615.4219 Q695.9443,617.5156 696.6318,618.5938 Q697.3193,619.6563 698.6631,619.6563 Q699.2881,619.6563 699.8818,619.3906 Q700.4756,619.1094 701.1006,618.5313 L701.1006,621.25 Z " fill="#000000"/><text fill="#2C3E50" font-family="Verdana" font-size="14" lengthAdjust="spacing" textLength="68.0039" x="715.6318" y="620.4561">Customer</text><line style="stroke:#2C3E50;stroke-width:1;" x1="591" x2="880.7676" y1="629.6094" y2="629.6094"/><text fill="#2C3E50" font-family="Verdana" font-size="14" lengthAdjust="spacing" textLength="95.7031" x="596" y="646.6045">-name: String</text><text fill="#2C3E50" font-family="Verdana" font-size="14" lengthAdjust="spacing" textLength="94.6094" x="596" y="662.9014">-email: String</text><text fill="#2C3E50" font-family="Verdana" font-size="14" lengthAdjust="spacing" textLength="206.5" x="596" y="679.1982">-purchaseHistory: List&lt;Sale&gt;</text><line style="stroke:#2C3E50;stroke-width:1;" x1="591" x2="880.7676" y1="686.5" y2="686.5"/><text fill="#2C3E50" font-family="Verdana" font-size="14" lengthAdjust="spacing" textLength="279.7676" x="596" y="703.4951">+Customer(name: String, email: String)</text><text fill="#2C3E50" font-family="Verdana" font-size="14" lengthAdjust="spacing" textLength="137.8945" x="596" y="719.792">+getName(): String</text><text fill="#2C3E50" font-family="Verdana" font-size="14" lengthAdjust="spacing" textLength="135.4336" x="596" y="736.0889">+getEmail(): String</text><text fill="#2C3E50" font-family="Verdana" font-size="14" lengthAdjust="spacing" textLength="219.4404" x="596" y="752.3857">+addPurchase(sale: Sale): void</text><text fill="#2C3E50" font-family="Verdana" font-size="14" lengthAdjust="spacing" textLength="246.6475" x="596" y="768.6826">+getPurchaseHistory(): List&lt;Sale&gt;</text></g><!--class Employee--><g id="elem_Employee"><rect codeLine="79" fill="#F8F9FA" height="255.8594" id="Employee" rx="2.5" ry="2.5" style="stroke:#2C3E50;stroke-width:1;" width="342.9551" x="211.5" y="560.6094"/><ellipse cx="344.5591" cy="574.6094" fill="#FFFFFF" rx="9" ry="9" style="stroke:#000000;stroke-width:1;"/><path d="M347.5278,580.25 Q346.9497,580.5469 346.3091,580.6875 Q345.6685,580.8438 344.9653,580.8438 Q342.4653,580.8438 341.1372,579.2031 Q339.8247,577.5469 339.8247,574.4219 Q339.8247,571.2969 341.1372,569.6406 Q342.4653,567.9844 344.9653,567.9844 Q345.6685,567.9844 346.3091,568.1406 Q346.9653,568.2969 347.5278,568.5938 L347.5278,571.3125 Q346.9028,570.7344 346.3091,570.4688 Q345.7153,570.1875 345.0903,570.1875 Q343.7466,570.1875 343.0591,571.2656 Q342.3716,572.3281 342.3716,574.4219 Q342.3716,576.5156 343.0591,577.5938 Q343.7466,578.6563 345.0903,578.6563 Q345.7153,578.6563 346.3091,578.3906 Q346.9028,578.1094 347.5278,577.5313 L347.5278,580.25 Z " fill="#000000"/><text fill="#2C3E50" font-family="Verdana" font-size="14" lengthAdjust="spacing" textLength="69.3369" x="362.0591" y="579.4561">Employee</text><line style="stroke:#2C3E50;stroke-width:1;" x1="212.5" x2="553.4551" y1="588.6094" y2="588.6094"/><text fill="#2C3E50" font-family="Verdana" font-size="14" lengthAdjust="spacing" textLength="68.7764" x="217.5" y="605.6045">-id: String</text><text fill="#2C3E50" font-family="Verdana" font-size="14" lengthAdjust="spacing" textLength="95.7031" x="217.5" y="621.9014">-name: String</text><text fill="#2C3E50" font-family="Verdana" font-size="14" lengthAdjust="spacing" textLength="71.8389" x="217.5" y="638.1982">-role: Role</text><text fill="#2C3E50" font-family="Verdana" font-size="14" lengthAdjust="spacing" textLength="104.3164" x="217.5" y="654.4951">-salary: double</text><text fill="#2C3E50" font-family="Verdana" font-size="14" lengthAdjust="spacing" textLength="144.8057" x="217.5" y="670.792">-hireDate: LocalDate</text><line style="stroke:#2C3E50;stroke-width:1;" x1="212.5" x2="553.4551" y1="678.0938" y2="678.0938"/><text fill="#2C3E50" font-family="Verdana" font-size="14" lengthAdjust="spacing" textLength="330.9551" x="217.5" y="695.0889">+Employee(id: String, name: String, role: Role)</text><text fill="#2C3E50" font-family="Verdana" font-size="14" lengthAdjust="spacing" textLength="109.6074" x="217.5" y="711.3857">+getId(): String</text><text fill="#2C3E50" font-family="Verdana" font-size="14" lengthAdjust="spacing" textLength="137.8945" x="217.5" y="727.6826">+getName(): String</text><text fill="#2C3E50" font-family="Verdana" font-size="14" lengthAdjust="spacing" textLength="116.4023" x="217.5" y="743.9795">+getRole(): Role</text><text fill="#2C3E50" font-family="Verdana" font-size="14" lengthAdjust="spacing" textLength="146.501" x="217.5" y="760.2764">+getSalary(): double</text><text fill="#2C3E50" font-family="Verdana" font-size="14" lengthAdjust="spacing" textLength="187.0518" x="217.5" y="776.5732">+getHireDate(): LocalDate</text><text fill="#2C3E50" font-family="Verdana" font-size="14" lengthAdjust="spacing" textLength="226.085" x="217.5" y="792.8701">+setSalary(salary: double): void</text><text fill="#2C3E50" font-family="Verdana" font-size="14" lengthAdjust="spacing" textLength="180.4277" x="217.5" y="809.167">+setRole(role: Role): void</text></g><!--class EmployeeData--><g id="elem_EmployeeData"><rect codeLine="95" fill="#F8F9FA" height="141.7813" id="EmployeeData" rx="2.5" ry="2.5" style="stroke:#2C3E50;stroke-width:1;" width="343.8643" x="225" y="342.6094"/><ellipse cx="341.7998" cy="356.6094" fill="#FFFFFF" rx="9" ry="9" style="stroke:#000000;stroke-width:1;"/><path d="M344.7686,362.25 Q344.1904,362.5469 343.5498,362.6875 Q342.9092,362.8438 342.2061,362.8438 Q339.7061,362.8438 338.3779,361.2031 Q337.0654,359.5469 337.0654,356.4219 Q337.0654,353.2969 338.3779,351.6406 Q339.7061,349.9844 342.2061,349.9844 Q342.9092,349.9844 343.5498,350.1406 Q344.2061,350.2969 344.7686,350.5938 L344.7686,353.3125 Q344.1436,352.7344 343.5498,352.4688 Q342.9561,352.1875 342.3311,352.1875 Q340.9873,352.1875 340.2998,353.2656 Q339.6123,354.3281 339.6123,356.4219 Q339.6123,358.5156 340.2998,359.5938 Q340.9873,360.6563 342.3311,360.6563 Q342.9561,360.6563 343.5498,360.3906 Q344.1436,360.1094 344.7686,359.5313 L344.7686,362.25 Z " fill="#000000"/><text fill="#2C3E50" font-family="Verdana" font-size="14" lengthAdjust="spacing" textLength="102.7646" x="359.2998" y="361.4561">EmployeeData</text><line style="stroke:#2C3E50;stroke-width:1;" x1="226" x2="567.8643" y1="370.6094" y2="370.6094"/><text fill="#2C3E50" font-family="Verdana" font-size="14" lengthAdjust="spacing" textLength="207.8877" x="231" y="387.6045">-employees: List&lt;Employee&gt;</text><line style="stroke:#2C3E50;stroke-width:1;" x1="226" x2="567.8643" y1="394.9063" y2="394.9063"/><text fill="#2C3E50" font-family="Verdana" font-size="14" lengthAdjust="spacing" textLength="304.7461" x="231" y="411.9014">+addEmployee(employee: Employee): void</text><text fill="#2C3E50" font-family="Verdana" font-size="14" lengthAdjust="spacing" textLength="331.8643" x="231" y="428.1982">+removeEmployee(employee: Employee): void</text><text fill="#2C3E50" font-family="Verdana" font-size="14" lengthAdjust="spacing" textLength="248.7119" x="231" y="444.4951">+getEmployees(): List&lt;Employee&gt;</text><text fill="#2C3E50" font-family="Verdana" font-size="14" lengthAdjust="spacing" textLength="291.7031" x="231" y="460.792">+findEmployeeById(id: String): Employee</text><text fill="#2C3E50" font-family="Verdana" font-size="14" lengthAdjust="spacing" textLength="327.7217" x="231" y="477.0889">+updateEmployee(employee: Employee): void</text></g><!--class Sale--><g id="elem_Sale"><rect codeLine="104" fill="#F8F9FA" height="223.2656" id="Sale" rx="2.5" ry="2.5" style="stroke:#2C3E50;stroke-width:1;" width="388.8789" x="492.5" y="876.6094"/><ellipse cx="668.2051" cy="890.6094" fill="#FFFFFF" rx="9" ry="9" style="stroke:#000000;stroke-width:1;"/><path d="M671.1738,896.25 Q670.5957,896.5469 669.9551,896.6875 Q669.3145,896.8438 668.6113,896.8438 Q666.1113,896.8438 664.7832,895.2031 Q663.4707,893.5469 663.4707,890.4219 Q663.4707,887.2969 664.7832,885.6406 Q666.1113,883.9844 668.6113,883.9844 Q669.3145,883.9844 669.9551,884.1406 Q670.6113,884.2969 671.1738,884.5938 L671.1738,887.3125 Q670.5488,886.7344 669.9551,886.4688 Q669.3613,886.1875 668.7363,886.1875 Q667.3926,886.1875 666.7051,887.2656 Q666.0176,888.3281 666.0176,890.4219 Q666.0176,892.5156 666.7051,893.5938 Q667.3926,894.6563 668.7363,894.6563 Q669.3613,894.6563 669.9551,894.3906 Q670.5488,894.1094 671.1738,893.5313 L671.1738,896.25 Z " fill="#000000"/><text fill="#2C3E50" font-family="Verdana" font-size="14" lengthAdjust="spacing" textLength="29.9688" x="685.7051" y="895.4561">Sale</text><line style="stroke:#2C3E50;stroke-width:1;" x1="493.5" x2="880.3789" y1="904.6094" y2="904.6094"/><text fill="#2C3E50" font-family="Verdana" font-size="14" lengthAdjust="spacing" textLength="62.3984" x="498.5" y="921.6045">-id: UUID</text><text fill="#2C3E50" font-family="Verdana" font-size="14" lengthAdjust="spacing" textLength="148.1484" x="498.5" y="937.9014">-customer: Customer</text><text fill="#2C3E50" font-family="Verdana" font-size="14" lengthAdjust="spacing" textLength="177.3105" x="498.5" y="954.1982">-products: List&lt;Product&gt;</text><text fill="#2C3E50" font-family="Verdana" font-size="14" lengthAdjust="spacing" textLength="148.9619" x="498.5" y="970.4951">-totalAmount: double</text><text fill="#2C3E50" font-family="Verdana" font-size="14" lengthAdjust="spacing" textLength="150.4727" x="498.5" y="986.792">-date: LocalDateTime</text><line style="stroke:#2C3E50;stroke-width:1;" x1="493.5" x2="880.3789" y1="994.0938" y2="994.0938"/><text fill="#2C3E50" font-family="Verdana" font-size="14" lengthAdjust="spacing" textLength="376.8789" x="498.5" y="1011.0889">+Sale(customer: Customer, products: List&lt;Product&gt;)</text><text fill="#2C3E50" font-family="Verdana" font-size="14" lengthAdjust="spacing" textLength="103.2295" x="498.5" y="1027.3857">+getId(): UUID</text><text fill="#2C3E50" font-family="Verdana" font-size="14" lengthAdjust="spacing" textLength="190.8184" x="498.5" y="1043.6826">+getCustomer(): Customer</text><text fill="#2C3E50" font-family="Verdana" font-size="14" lengthAdjust="spacing" textLength="217.458" x="498.5" y="1059.9795">+getProducts(): List&lt;Product&gt;</text><text fill="#2C3E50" font-family="Verdana" font-size="14" lengthAdjust="spacing" textLength="192.6162" x="498.5" y="1076.2764">+getTotalAmount(): double</text><text fill="#2C3E50" font-family="Verdana" font-size="14" lengthAdjust="spacing" textLength="192.958" x="498.5" y="1092.5732">+getDate(): LocalDateTime</text></g><!--class ShoppingCart--><g id="elem_ShoppingCart"><rect codeLine="118" fill="#F8F9FA" height="174.375" id="ShoppingCart" rx="2.5" ry="2.5" style="stroke:#2C3E50;stroke-width:1;" width="275.8193" x="630" y="326.6094"/><ellipse cx="716.4858" cy="340.6094" fill="#FFFFFF" rx="9" ry="9" style="stroke:#000000;stroke-width:1;"/><path d="M719.4546,346.25 Q718.8765,346.5469 718.2358,346.6875 Q717.5952,346.8438 716.8921,346.8438 Q714.3921,346.8438 713.064,345.2031 Q711.7515,343.5469 711.7515,340.4219 Q711.7515,337.2969 713.064,335.6406 Q714.3921,333.9844 716.8921,333.9844 Q717.5952,333.9844 718.2358,334.1406 Q718.8921,334.2969 719.4546,334.5938 L719.4546,337.3125 Q718.8296,336.7344 718.2358,336.4688 Q717.6421,336.1875 717.0171,336.1875 Q715.6733,336.1875 714.9858,337.2656 Q714.2983,338.3281 714.2983,340.4219 Q714.2983,342.5156 714.9858,343.5938 Q715.6733,344.6563 717.0171,344.6563 Q717.6421,344.6563 718.2358,344.3906 Q718.8296,344.1094 719.4546,343.5313 L719.4546,346.25 Z " fill="#000000"/><text fill="#2C3E50" font-family="Verdana" font-size="14" lengthAdjust="spacing" textLength="95.3477" x="733.9858" y="345.4561">ShoppingCart</text><line style="stroke:#2C3E50;stroke-width:1;" x1="631" x2="904.8193" y1="354.6094" y2="354.6094"/><text fill="#2C3E50" font-family="Verdana" font-size="14" lengthAdjust="spacing" textLength="154.7861" x="636" y="371.6045">-items: List&lt;Product&gt;</text><text fill="#2C3E50" font-family="Verdana" font-size="14" lengthAdjust="spacing" textLength="148.1484" x="636" y="387.9014">-customer: Customer</text><line style="stroke:#2C3E50;stroke-width:1;" x1="631" x2="904.8193" y1="395.2031" y2="395.2031"/><text fill="#2C3E50" font-family="Verdana" font-size="14" lengthAdjust="spacing" textLength="236.7012" x="636" y="412.1982">+addItem(product: Product): void</text><text fill="#2C3E50" font-family="Verdana" font-size="14" lengthAdjust="spacing" textLength="263.8193" x="636" y="428.4951">+removeItem(product: Product): void</text><text fill="#2C3E50" font-family="Verdana" font-size="14" lengthAdjust="spacing" textLength="195.6172" x="636" y="444.792">+getItems(): List&lt;Product&gt;</text><text fill="#2C3E50" font-family="Verdana" font-size="14" lengthAdjust="spacing" textLength="171.999" x="636" y="461.0889">+getTotalPrice(): double</text><text fill="#2C3E50" font-family="Verdana" font-size="14" lengthAdjust="spacing" textLength="125.7061" x="636" y="477.3857">+checkout(): Sale</text><text fill="#2C3E50" font-family="Verdana" font-size="14" lengthAdjust="spacing" textLength="95.9834" x="636" y="493.6826">+clear(): void</text></g><!--class MusicShopGUI--><g id="elem_MusicShopGUI"><rect codeLine="131" fill="#F8F9FA" height="158.0781" id="MusicShopGUI" rx="2.5" ry="2.5" style="stroke:#2C3E50;stroke-width:1;" width="203.625" x="666" y="93.6094"/><ellipse cx="713.9277" cy="107.6094" fill="#FFFFFF" rx="9" ry="9" style="stroke:#000000;stroke-width:1;"/><path d="M716.8965,113.25 Q716.3184,113.5469 715.6777,113.6875 Q715.0371,113.8438 714.334,113.8438 Q711.834,113.8438 710.5059,112.2031 Q709.1934,110.5469 709.1934,107.4219 Q709.1934,104.2969 710.5059,102.6406 Q711.834,100.9844 714.334,100.9844 Q715.0371,100.9844 715.6777,101.1406 Q716.334,101.2969 716.8965,101.5938 L716.8965,104.3125 Q716.2715,103.7344 715.6777,103.4688 Q715.084,103.1875 714.459,103.1875 Q713.1152,103.1875 712.4277,104.2656 Q711.7402,105.3281 711.7402,107.4219 Q711.7402,109.5156 712.4277,110.5938 Q713.1152,111.6563 714.459,111.6563 Q715.084,111.6563 715.6777,111.3906 Q716.2715,111.1094 716.8965,110.5313 L716.8965,113.25 Z " fill="#000000"/><text fill="#2C3E50" font-family="Verdana" font-size="14" lengthAdjust="spacing" textLength="100.2695" x="731.4277" y="112.4561">MusicShopGUI</text><line style="stroke:#2C3E50;stroke-width:1;" x1="667" x2="868.625" y1="121.6094" y2="121.6094"/><text fill="#2C3E50" font-family="Verdana" font-size="14" lengthAdjust="spacing" textLength="104.501" x="672" y="138.6045">-frame: JFrame</text><text fill="#2C3E50" font-family="Verdana" font-size="14" lengthAdjust="spacing" textLength="149.2969" x="672" y="154.9014">-productPanel: JPanel</text><text fill="#2C3E50" font-family="Verdana" font-size="14" lengthAdjust="spacing" textLength="122.6641" x="672" y="171.1982">-cartPanel: JPanel</text><line style="stroke:#2C3E50;stroke-width:1;" x1="667" x2="868.625" y1="178.5" y2="178.5"/><text fill="#2C3E50" font-family="Verdana" font-size="14" lengthAdjust="spacing" textLength="119.7998" x="672" y="195.4951">+initialize(): void</text><text fill="#2C3E50" font-family="Verdana" font-size="14" lengthAdjust="spacing" textLength="191.625" x="672" y="211.792">-createProductPanel(): void</text><text fill="#2C3E50" font-family="Verdana" font-size="14" lengthAdjust="spacing" textLength="167.5146" x="672" y="228.0889">-createCartPanel(): void</text><text fill="#2C3E50" font-family="Verdana" font-size="14" lengthAdjust="spacing" textLength="118.4736" x="672" y="244.3857">-updateUI(): void</text></g><!--class EmployeeRosterGUI--><g id="elem_EmployeeRosterGUI"><rect codeLine="141" fill="#F8F9FA" height="125.4844" id="EmployeeRosterGUI" rx="2.5" ry="2.5" style="stroke:#2C3E50;stroke-width:1;" width="223.9551" x="407" y="110.1094"/><ellipse cx="445.2241" cy="124.1094" fill="#FFFFFF" rx="9" ry="9" style="stroke:#000000;stroke-width:1;"/><path d="M448.1929,129.75 Q447.6147,130.0469 446.9741,130.1875 Q446.3335,130.3438 445.6304,130.3438 Q443.1304,130.3438 441.8022,128.7031 Q440.4897,127.0469 440.4897,123.9219 Q440.4897,120.7969 441.8022,119.1406 Q443.1304,117.4844 445.6304,117.4844 Q446.3335,117.4844 446.9741,117.6406 Q447.6304,117.7969 448.1929,118.0938 L448.1929,120.8125 Q447.5679,120.2344 446.9741,119.9688 Q446.3804,119.6875 445.7554,119.6875 Q444.4116,119.6875 443.7241,120.7656 Q443.0366,121.8281 443.0366,123.9219 Q443.0366,126.0156 443.7241,127.0938 Q444.4116,128.1563 445.7554,128.1563 Q446.3804,128.1563 446.9741,127.8906 Q447.5679,127.6094 448.1929,127.0313 L448.1929,129.75 Z " fill="#000000"/><text fill="#2C3E50" font-family="Verdana" font-size="14" lengthAdjust="spacing" textLength="140.0068" x="462.7241" y="128.9561">EmployeeRosterGUI</text><line style="stroke:#2C3E50;stroke-width:1;" x1="408" x2="629.9551" y1="138.1094" y2="138.1094"/><text fill="#2C3E50" font-family="Verdana" font-size="14" lengthAdjust="spacing" textLength="104.501" x="413" y="155.1045">-frame: JFrame</text><text fill="#2C3E50" font-family="Verdana" font-size="14" lengthAdjust="spacing" textLength="164.4932" x="413" y="171.4014">-employeeTable: JTable</text><line style="stroke:#2C3E50;stroke-width:1;" x1="408" x2="629.9551" y1="178.7031" y2="178.7031"/><text fill="#2C3E50" font-family="Verdana" font-size="14" lengthAdjust="spacing" textLength="119.7998" x="413" y="195.6982">+initialize(): void</text><text fill="#2C3E50" font-family="Verdana" font-size="14" lengthAdjust="spacing" textLength="207.252" x="413" y="211.9951">-createEmployeePanel(): void</text><text fill="#2C3E50" font-family="Verdana" font-size="14" lengthAdjust="spacing" textLength="211.9551" x="413" y="228.292">-updateEmployeeTable(): void</text></g><!--class AlbumListCellRenderer--><g id="elem_AlbumListCellRenderer"><rect codeLine="149" fill="#F8F9FA" height="60.2969" id="AlbumListCellRenderer" rx="2.5" ry="2.5" style="stroke:#2C3E50;stroke-width:1;" width="344.8486" x="27.5" y="142.6094"/><ellipse cx="116.0024" cy="156.6094" fill="#FFFFFF" rx="9" ry="9" style="stroke:#000000;stroke-width:1;"/><path d="M118.9712,162.25 Q118.3931,162.5469 117.7524,162.6875 Q117.1118,162.8438 116.4087,162.8438 Q113.9087,162.8438 112.5806,161.2031 Q111.2681,159.5469 111.2681,156.4219 Q111.2681,153.2969 112.5806,151.6406 Q113.9087,149.9844 116.4087,149.9844 Q117.1118,149.9844 117.7524,150.1406 Q118.4087,150.2969 118.9712,150.5938 L118.9712,153.3125 Q118.3462,152.7344 117.7524,152.4688 Q117.1587,152.1875 116.5337,152.1875 Q115.1899,152.1875 114.5024,153.2656 Q113.8149,154.3281 113.8149,156.4219 Q113.8149,158.5156 114.5024,159.5938 Q115.1899,160.6563 116.5337,160.6563 Q117.1587,160.6563 117.7524,160.3906 Q118.3462,160.1094 118.9712,159.5313 L118.9712,162.25 Z " fill="#000000"/><text fill="#2C3E50" font-family="Verdana" font-size="14" lengthAdjust="spacing" textLength="160.3438" x="133.5024" y="161.4561">AlbumListCellRenderer</text><line style="stroke:#2C3E50;stroke-width:1;" x1="28.5" x2="371.3486" y1="170.6094" y2="170.6094"/><line style="stroke:#2C3E50;stroke-width:1;" x1="28.5" x2="371.3486" y1="178.6094" y2="178.6094"/><text fill="#2C3E50" font-family="Verdana" font-size="14" lengthAdjust="spacing" textLength="332.8486" x="33.5" y="195.6045">+getListCellRendererComponent(): Component</text></g><!--class Genre--><g id="elem_Genre"><rect codeLine="155" fill="#F8F9FA" height="141.7813" id="Genre" rx="2.5" ry="2.5" style="stroke:#2C3E50;stroke-width:1;" width="100.9424" x="588.5" y="1724.6094"/><ellipse cx="615.1072" cy="1738.6094" fill="#FFFFFF" rx="9" ry="9" style="stroke:#000000;stroke-width:1;"/><path d="M619.2166,1744.6094 L611.4979,1744.6094 L611.4979,1732.2188 L619.2166,1732.2188 L619.2166,1734.375 L613.951,1734.375 L613.951,1737.0469 L618.7166,1737.0469 L618.7166,1739.2031 L613.951,1739.2031 L613.951,1742.4531 L619.2166,1742.4531 L619.2166,1744.6094 Z " fill="#000000"/><text fill="#2C3E50" font-family="Verdana" font-size="14" lengthAdjust="spacing" textLength="42.7041" x="630.1311" y="1743.4561">Genre</text><line style="stroke:#2C3E50;stroke-width:1;" x1="589.5" x2="688.4424" y1="1752.6094" y2="1752.6094"/><text fill="#2C3E50" font-family="Verdana" font-size="14" lengthAdjust="spacing" textLength="39.7031" x="594.5" y="1769.6045">ROCK</text><text fill="#2C3E50" font-family="Verdana" font-size="14" lengthAdjust="spacing" textLength="27.9043" x="594.5" y="1785.9014">POP</text><text fill="#2C3E50" font-family="Verdana" font-size="14" lengthAdjust="spacing" textLength="32.8877" x="594.5" y="1802.1982">JAZZ</text><text fill="#2C3E50" font-family="Verdana" font-size="14" lengthAdjust="spacing" textLength="76.207" x="594.5" y="1818.4951">CLASSICAL</text><text fill="#2C3E50" font-family="Verdana" font-size="14" lengthAdjust="spacing" textLength="53.0879" x="594.5" y="1834.792">HIPHOP</text><text fill="#2C3E50" font-family="Verdana" font-size="14" lengthAdjust="spacing" textLength="88.9424" x="594.5" y="1851.0889">ELECTRONIC</text><line style="stroke:#2C3E50;stroke-width:1;" x1="589.5" x2="688.4424" y1="1858.3906" y2="1858.3906"/></g><!--class Role--><g id="elem_Role"><rect codeLine="164" fill="#F8F9FA" height="109.1875" id="Role" rx="2.5" ry="2.5" style="stroke:#2C3E50;stroke-width:1;" width="145.6768" x="407" y="1741.1094"/><ellipse cx="460.6904" cy="1755.1094" fill="#FFFFFF" rx="9" ry="9" style="stroke:#000000;stroke-width:1;"/><path d="M464.7998,1761.1094 L457.0811,1761.1094 L457.0811,1748.7188 L464.7998,1748.7188 L464.7998,1750.875 L459.5342,1750.875 L459.5342,1753.5469 L464.2998,1753.5469 L464.2998,1755.7031 L459.5342,1755.7031 L459.5342,1758.9531 L464.7998,1758.9531 L464.7998,1761.1094 Z " fill="#000000"/><text fill="#2C3E50" font-family="Verdana" font-size="14" lengthAdjust="spacing" textLength="30.7959" x="478.1904" y="1759.9561">Role</text><line style="stroke:#2C3E50;stroke-width:1;" x1="408" x2="551.6768" y1="1769.1094" y2="1769.1094"/><text fill="#2C3E50" font-family="Verdana" font-size="14" lengthAdjust="spacing" textLength="71.1279" x="413" y="1786.1045">MANAGER</text><text fill="#2C3E50" font-family="Verdana" font-size="14" lengthAdjust="spacing" textLength="130.2451" x="413" y="1802.4014">SALES_ASSOCIATE</text><text fill="#2C3E50" font-family="Verdana" font-size="14" lengthAdjust="spacing" textLength="133.6768" x="413" y="1818.6982">INVENTORY_CLERK</text><text fill="#2C3E50" font-family="Verdana" font-size="14" lengthAdjust="spacing" textLength="61.4688" x="413" y="1834.9951">CASHIER</text><line style="stroke:#2C3E50;stroke-width:1;" x1="408" x2="551.6768" y1="1842.2969" y2="1842.2969"/></g><!--reverse link Product to Album--><g id="link_Product_Album"><path codeLine="173" d="M949.1942,1394.2511 C986.7842,1425.4311 1012.76,1446.9994 1046.61,1475.0794 " fill="none" id="Product-backto-Album" style="stroke:#2C3E50;stroke-width:1;"/><polygon fill="none" points="935.34,1382.7594,945.3636,1398.8692,953.0248,1389.633,935.34,1382.7594" style="stroke:#2C3E50;stroke-width:1;"/></g><!--reverse link Product to CD--><g id="link_Product_CD"><path codeLine="174" d="M726.708,1398.2116 C714.968,1417.8616 712.02,1422.8094 700.42,1442.2394 " fill="none" id="Product-backto-CD" style="stroke:#2C3E50;stroke-width:1;"/><polygon fill="none" points="735.94,1382.7594,721.5573,1395.1342,731.8587,1401.2889,735.94,1382.7594" style="stroke:#2C3E50;stroke-width:1;"/></g><!--link Product to Purchasable--><g id="link_Product_Purchasable"><path codeLine="175" d="M577.45,1349.5694 C517.4,1374.9594 454.18,1406.1694 400,1442.6094 C373.2,1460.6294 359.506,1472.8933 340.456,1494.0133 " fill="none" id="Product-to-Purchasable" style="stroke:#2C3E50;stroke-width:1;stroke-dasharray:7.0,7.0;"/><polygon fill="none" points="328.4,1507.3794,344.9114,1498.032,336.0007,1489.9946,328.4,1507.3794" style="stroke:#2C3E50;stroke-width:1;"/></g><!--link Customer to Sale--><g id="link_Customer_Sale"><path codeLine="177" d="M721.83,775.6594 C716.64,807.1494 710.7,843.2294 705.21,876.5594 " fill="none" id="Customer-Sale" style="stroke:#2C3E50;stroke-width:1;"/><text fill="#000000" font-family="Verdana" font-size="13" lengthAdjust="spacing" textLength="8.271" x="712.2342" y="796.1363">1</text><text fill="#000000" font-family="Verdana" font-size="13" lengthAdjust="spacing" textLength="6.5" x="700.2528" y="865.6231">*</text></g><!--link Sale to Product--><g id="link_Sale_Product"><path codeLine="178" d="M732.29,1099.7694 C740.33,1119.4194 748.71,1139.8994 756.76,1159.5594 " fill="none" id="Sale-Product" style="stroke:#2C3E50;stroke-width:1;"/><text fill="#000000" font-family="Verdana" font-size="13" lengthAdjust="spacing" textLength="6.5" x="729.1522" y="1119.8379">*</text><text fill="#000000" font-family="Verdana" font-size="13" lengthAdjust="spacing" textLength="6.5" x="747.5409" y="1148.6231">*</text></g><!--link ShoppingCart to Customer--><g id="link_ShoppingCart_Customer"><path codeLine="180" d="M757.92,500.6094 C754.15,532.8094 749.86,569.3694 746.09,601.5694 " fill="none" id="ShoppingCart-Customer" style="stroke:#2C3E50;stroke-width:1;"/><text fill="#000000" font-family="Verdana" font-size="13" lengthAdjust="spacing" textLength="8.271" x="748.6861" y="521.0819">1</text><text fill="#000000" font-family="Verdana" font-size="13" lengthAdjust="spacing" textLength="8.271" x="738.635" y="590.5013">1</text></g><!--link ShoppingCart to Product--><g id="link_ShoppingCart_Product"><path codeLine="181" d="M864.16,500.9094 C878.81,519.0594 891.77,539.2394 900,560.6094 C904.53,572.3694 902.27,1087.3394 899,1099.6094 C893.61,1119.8494 885.21,1140.1994 875.56,1159.4494 " fill="none" id="ShoppingCart-Product" style="stroke:#2C3E50;stroke-width:1;"/><text fill="#000000" font-family="Verdana" font-size="13" lengthAdjust="spacing" textLength="6.5" x="866.1952" y="521.1127">*</text><text fill="#000000" font-family="Verdana" font-size="13" lengthAdjust="spacing" textLength="6.5" x="874.3228" y="1148.5057">*</text></g><!--link EmployeeData to Employee--><g id="link_EmployeeData_Employee"><path codeLine="183" d="M393.39,484.9094 C392.21,508.0594 390.85,534.5494 389.51,560.5894 " fill="none" id="EmployeeData-Employee" style="stroke:#2C3E50;stroke-width:1;"/><text fill="#000000" font-family="Verdana" font-size="13" lengthAdjust="spacing" textLength="8.271" x="384.6841" y="504.5036">1</text><text fill="#000000" font-family="Verdana" font-size="13" lengthAdjust="spacing" textLength="6.5" x="383.7405" y="549.4064">*</text></g><!--link Employee to Role--><g id="link_Employee_Role"><path codeLine="184" d="M304.38,816.8194 C192.3,1016.2294 18.62,1407.1094 195,1673.6094 C241.8,1744.3194 339.14,1773.8294 406.97,1786.0694 " fill="none" id="Employee-Role" style="stroke:#2C3E50;stroke-width:1;"/></g><!--link MusicShopGUI to ShoppingCart--><g id="link_MusicShopGUI_ShoppingCart"><path codeLine="186" d="M768,251.8694 C768,275.6894 768,302.0094 768,326.3294 " fill="none" id="MusicShopGUI-ShoppingCart" style="stroke:#2C3E50;stroke-width:1;"/></g><!--link MusicShopGUI to Product--><g id="link_MusicShopGUI_Product"><path codeLine="187" d="M870.11,224.4294 C891.74,240.2594 911.72,259.9294 924,283.6094 C973.25,378.6094 1022.59,722.7494 909,1099.6094 C902.85,1120.0194 893.55,1140.3894 882.96,1159.5694 " fill="none" id="MusicShopGUI-Product" style="stroke:#2C3E50;stroke-width:1;"/></g><!--link EmployeeRosterGUI to EmployeeData--><g id="link_EmployeeRosterGUI_EmployeeData"><path codeLine="188" d="M487.58,235.1594 C470.85,267.9394 450.2,308.3894 432.84,342.3894 " fill="none" id="EmployeeRosterGUI-EmployeeData" style="stroke:#2C3E50;stroke-width:1;"/></g><!--link Album to Genre--><g id="link_Album_Genre"><path codeLine="190" d="M991.66,1617.2094 C890.79,1667.9494 760.26,1733.6094 689.69,1769.1094 " fill="none" id="Album-Genre" style="stroke:#2C3E50;stroke-width:1;"/></g><!--link CD to Genre--><g id="link_CD_Genre"><path codeLine="191" d="M639,1649.9194 C639,1675.0194 639,1701.3094 639,1724.4794 " fill="none" id="CD-Genre" style="stroke:#2C3E50;stroke-width:1;"/></g><!--SRC=[pLVVRzis47xNNy6b3t7MfEWw5DYC8e0gouqo9pOiPy3wKj0IOnEHH8sYMdXj__STVqWc9Tbri9VvmP9unxlllZkIntCKYrr642vI9BOa9wWYGj1YKta_wUyomxJmgYTQb9ZZ7ArnyhJXh2xIW6MC8y5nKO685CBIIZ9SLRuGdAvhGQA45J7zXw3NbegoaJ1U48xUMkFL5gVi2q10ZpYhYDUrYhvw27xlEpXUJ7-R_ZxrjOpnb70p_YRuDNpxMetxdBCl_U4fAyI0SeD-M1mBmWaJkt90_jq6NG9Gl26QPquIWOjD1c6TenKLy2BaFxghAvgWUCjAT8SBqC-1K1JlAa5oT8K25Vc4uWsOb7CNschb6VFeZgKaCzoSewW0U8yu0GKvG9jFjAXviiKLNeDFhIn_Bz5NlAuWbOduZagjGY9mFReOey-CfiEQd8YQ5pqz25-Zy8scXc-mDDDDDXUSfJLyxS5SeGBdP0mCSwW2QxZaD87nbDM0tXgdEH0mfHcv7vht0bM29KzZIO8LXl4xidrTkYukXorVM5OsH4YH3B_ZLiaMqfmKTZ0hOMGRFsGXbjYbq4LVboaMH0l_hd41HRHJEaVp1VOcH62QLHrtRSO2LYIGLU9aJ2VApzPrxgG9Sq4hCP2e3IauqFL1FYmaoi9nmbsJbuwb3k- -KZt4cveXXLqGF-901njC_aEaKC1rlYPy_hW2tfygDtbNAAqv5fGLtQG6a_y1EVSEz7xbIVuC_c7X2UJMi29psFPFMFCa1sj3Uu7Pf6uWJCQXzcVmyYx66Rcs6JMUEhmwHf-nd4CvRr28qzJih6HK0GXGWV_-OfHxWejSckjWTyWAyp9ZEq8SicWwGCa11ZcJS9RCsJ818vQizVRIBULa0biBW689pkIh1Ry1Cze3k4Gkjtjt7MAZz12jnoYNXgJCmQztHXN2eStrniIXw1s8f6eDk5JqKrOP45PW_RFEpHNumaw-Y15K9jUDuhLRGYszZVwuDTd7nKdEFfDdJL4bR92qTJU4vP4MBPZtEyZSFjyNUmUzy-X4C0vdiknxjVtm44sieSGiut6xe9skG1ta3RNcNB-sD0GJEFDpw1N5GCMdRhMlQ6u79k6D-lul3xaTB7ed73NURamN0p6Pra7RR_FK2qofhVQn7LeAlMNGXkWc0dhF4X8Sm37Z9WJwkoFi7acEAchL7XgsnatRTQYSJrIMp4fKfv1pk0TBjYHvOhK-9h4hoWZcdQOMs6gQxGyFaQ58SwUwTqdWNg39UUHgSxoTocU_Q1Uu870GtQgdpIdaO5Zs4avSAYZEu3hLQyvX8YUGu8Lb_Q1IqFWOqD3B-I4Q_N2hMpAueV1JmsxsXPMyVu1SFPyNM-FuEFJGTdGu2jMHoW8AI9OjIG6tHgSjKLNKbGSiBrb1z89hF_f54a8NsDnM2RphRikolfm7VxGVY_cYVR_rFtviFuAP7yTHuC_QaPjeSMDfXxCmM2tdzr5W1wWyojFASdZdt_iVmcNx7VkpCFu4vkT1vA_2TZow_pEyNysNVtqAPk5oZp7muvl8p5UXdgCboLGlM6rfMNdDPUxTjwihJQux54pQxrUllbtRjr7FQzl2ir_E42YV_NocbwKw8kIN6JGcFC_PiffPy6Wt8bTXm89pObj-soEkRRz0e7eGprdhC6hxw0aRH_tb0aBRkUVf-nKCwwOSRY3D-xy0]--></g></svg>